<?xml version="1.0" encoding="UTF-8" standalone="no"?>
<svg width="524px" height="103px" viewBox="0 0 524 103" version="1.1" xmlns="http://www.w3.org/2000/svg" xmlns:xlink="http://www.w3.org/1999/xlink" xmlns:sketch="http://www.bohemiancoding.com/sketch/ns">
    <!-- Generator: Sketch 3.4.3 (16044) - http://www.bohemiancoding.com/sketch -->
    <title>Group</title>
    <desc>Created with Sketch.</desc>
    <defs></defs>
    <g id="Page-1" stroke="none" stroke-width="1" fill="none" fill-rule="evenodd" sketch:type="MSPage">
        <g id="Artboard-1" sketch:type="MSArtboardGroup" transform="translate(-458.000000, -372.000000)">
            <g id="Group" sketch:type="MSLayerGroup" transform="translate(460.000000, 374.000000)">
                <rect id="Rectangle-51" stroke-opacity="0.2" stroke="#FFFFFF" stroke-width="2" fill-opacity="0.15" fill="#000000" sketch:type="MSShapeGroup" x="0" y="0" width="68" height="68" rx="100"></rect>
                <rect id="Rectangle-51-Copy" stroke-opacity="0.2" stroke="#FFFFFF" stroke-width="2" fill-opacity="0.15" fill="#000000" sketch:type="MSShapeGroup" x="75" y="31" width="68" height="68" rx="100"></rect>
                <rect id="Rectangle-51-Copy-2" stroke-opacity="0.2" stroke="#FFFFFF" stroke-width="2" fill-opacity="0.15" fill="#000000" sketch:type="MSShapeGroup" x="150" y="0" width="68" height="68" rx="100"></rect>
                <rect id="Rectangle-51-Copy-3" stroke-opacity="0.2" stroke="#FFFFFF" stroke-width="2" fill-opacity="0.15" fill="#000000" sketch:type="MSShapeGroup" x="225" y="31" width="68" height="68" rx="100"></rect>
                <rect id="Rectangle-51-Copy-4" stroke-opacity="0.2" stroke="#FFFFFF" stroke-width="2" fill-opacity="0.15" fill="#000000" sketch:type="MSShapeGroup" x="300" y="0" width="68" height="68" rx="100"></rect>
                <rect id="Rectangle-51-Copy-5" stroke-opacity="0.2" stroke="#FFFFFF" stroke-width="2" fill-opacity="0.15" fill="#000000" sketch:type="MSShapeGroup" x="375" y="31" width="68" height="68" rx="100"></rect>
                <rect id="Rectangle-51-Copy-6" stroke-opacity="0.2" stroke="#FFFFFF" stroke-width="2" fill-opacity="0.15" fill="#000000" sketch:type="MSShapeGroup" x="452" y="0" width="68" height="68" rx="100"></rect>
                <path d="M25.015625,42.640625 L24.703125,40.84375 C25.7968805,40.7395828 26.9166609,40.6614586 28.0625,40.609375 L28.0625,36.546875 L26.8125,36.546875 L26.8125,37.875 L25.328125,37.875 L25.328125,28.03125 L28.0625,28.03125 L28.0625,24.671875 L29.859375,24.671875 L29.859375,28.03125 L32.671875,28.03125 L32.671875,36.546875 L29.78125,36.546875 L29.78125,40.53125 L31.421875,40.375 L30.875,37.953125 L32.28125,37.640625 C32.3333336,37.8489594 32.4114578,38.1614563 32.515625,38.578125 C32.8281266,39.7239641 33.1927063,41.1562414 33.609375,42.875 L32.125,43.1875 L31.8125,41.9375 C28.47915,42.2500016 26.2135477,42.4843742 25.015625,42.640625 L25.015625,42.640625 Z M15.171875,43.109375 L15.171875,33.578125 L24.3125,33.578125 L24.3125,41 C24.4166672,42.3541734 23.8177148,43.03125 22.515625,43.03125 L21.1875,43.03125 L21.1875,42.796875 C21.1354164,42.4843734 21.0312508,42.0416695 20.875,41.46875 L22.046875,41.46875 C22.5677109,41.5208336 22.8020836,41.2864609 22.75,40.765625 L22.75,35.140625 L16.734375,35.140625 L16.734375,43.109375 L15.171875,43.109375 Z M15.875,32.484375 L15.875,28.03125 L23.609375,28.03125 L23.609375,32.484375 L15.875,32.484375 Z M17.203125,39.4375 L17.203125,37.953125 L19.703125,37.953125 C20.2239609,36.9635367 20.6406234,36.0781289 20.953125,35.296875 L22.203125,35.765625 C21.8906234,36.4947953 21.5260437,37.2239547 21.109375,37.953125 L22.28125,37.953125 L22.28125,39.4375 L20.40625,39.4375 L20.40625,42.5625 L18.921875,42.5625 L18.921875,39.4375 L17.203125,39.4375 Z M14.78125,26.9375 L14.78125,25.375 L24.46875,25.375 L24.46875,26.9375 L14.78125,26.9375 Z M26.8125,29.828125 L26.8125,34.75 L28.296875,34.75 L28.296875,29.828125 L26.8125,29.828125 Z M31.109375,29.828125 L29.625,29.828125 L29.625,34.75 L31.109375,34.75 L31.109375,29.828125 Z M17.515625,29.4375 L17.515625,31.078125 L21.890625,31.078125 L21.890625,29.4375 L17.515625,29.4375 Z M18.296875,37.875 C17.9843734,37.1458297 17.6197937,36.4427117 17.203125,35.765625 L18.453125,35.296875 C18.5052086,35.4531258 18.6093742,35.661457 18.765625,35.921875 C18.9218758,36.0781258 19.1562484,36.5468711 19.46875,37.328125 L18.296875,37.875 Z M40.875,33.578125 C40.7187492,33.317707 40.3802109,32.7708375 39.859375,31.9375 C42.9843906,31.2604133 44.8333305,30.1145914 45.40625,28.5 C45.40625,28.4479164 45.4322914,28.3958336 45.484375,28.34375 C45.5364586,28.1354156 45.5625,27.901043 45.5625,27.640625 L43.296875,27.640625 C42.8281227,28.4218789 42.2031289,29.2291625 41.421875,30.0625 C40.9531227,29.6458313 40.4322945,29.2552102 39.859375,28.890625 C41.2135484,27.5885352 42.2031219,26.104175 42.828125,24.4375 L44.78125,24.671875 C44.6249992,25.1406273 44.4427094,25.5833313 44.234375,26 L52.75,26 L52.75,27.640625 L51.65625,29.90625 C51.395832,29.8020828 51.0312523,29.6718758 50.5625,29.515625 C50.1979148,29.4114578 49.9114594,29.3333336 49.703125,29.28125 L50.640625,27.640625 L47.59375,27.640625 C47.59375,27.6927086 47.5677086,27.7708328 47.515625,27.875 C47.515625,28.0312508 47.4895836,28.1354164 47.4375,28.1875 C48.1145867,30.0625094 50.119775,31.2864555 53.453125,31.859375 L52.515625,33.65625 C49.3906094,32.9270797 47.4375039,31.7812578 46.65625,30.21875 C45.8749961,31.625007 43.947932,32.7447875 40.875,33.578125 L40.875,33.578125 Z M37.125,39.59375 L37.125,33.8125 L50.953125,33.8125 L50.953125,39.515625 L48.84375,39.515625 L48.84375,35.53125 L39.15625,35.53125 L39.15625,39.59375 L37.125,39.59375 Z M35.71875,43.1875 C35.6666664,43.1354164 35.6145836,43.0312508 35.5625,42.875 C35.2499984,42.1458297 35.0156258,41.6250016 34.859375,41.3125 C39.9635672,40.9479148 42.6197906,39.8541758 42.828125,38.03125 C42.9322922,37.6145813 42.984375,37.0677117 42.984375,36.390625 L45.09375,36.390625 C45.09375,37.0677117 45.0156258,37.6927055 44.859375,38.265625 C44.859375,38.4218758 44.8072922,38.6041656 44.703125,38.8125 C45.7968805,39.1250016 47.3854063,39.6197883 49.46875,40.296875 C51.0312578,40.7656273 52.2031211,41.130207 52.984375,41.390625 L52.046875,43.1875 C48.6614414,41.8854102 45.9270937,40.9218781 43.84375,40.296875 C42.7499945,41.5989648 40.0416883,42.5624969 35.71875,43.1875 L35.71875,43.1875 Z M35.796875,33.734375 L34.546875,32.171875 C36.1093828,31.1302031 37.593743,30.0625055 39,28.96875 C39,29.0208336 39.0520828,29.0729164 39.15625,29.125 C39.3125008,29.3333344 39.6510391,29.7760383 40.171875,30.453125 C38.1406148,31.9114656 36.6822961,33.0052047 35.796875,33.734375 L35.796875,33.734375 Z M38.140625,28.5 C37.880207,28.2916656 37.4895859,27.9531273 36.96875,27.484375 C36.1874961,26.8072883 35.6145852,26.338543 35.25,26.078125 L36.578125,24.75 C36.838543,24.9583344 37.2031227,25.2447898 37.671875,25.609375 C38.6093797,26.2343781 39.2343734,26.7031234 39.546875,27.015625 L38.140625,28.5 Z" id="融资" fill="#FFFFFF" sketch:type="MSShapeGroup"></path>
                <path d="M91.265625,74.265625 C91.1093742,74.1614578 90.901043,74.0052094 90.640625,73.796875 C90.0677055,73.4322898 89.651043,73.1458344 89.390625,72.9375 C90.8489656,71.3749922 91.5260422,69.1614727 91.421875,66.296875 L91.421875,63.328125 L95.875,63.328125 C95.6666656,63.0156234 95.3541687,62.5729195 94.9375,62 C94.4687477,61.4270805 94.1302094,61.010418 93.921875,60.75 L95.640625,59.734375 C95.6927086,59.8385422 95.7968742,59.9687492 95.953125,60.125 C96.4739609,60.7500031 97.0989547,61.5312453 97.828125,62.46875 L96.34375,63.328125 L100.640625,63.328125 C101.265628,62.4427039 101.994788,61.2708406 102.828125,59.8125 L104.859375,60.75 C104.338539,61.5312539 103.713545,62.3906203 102.984375,63.328125 L107.828125,63.328125 L107.828125,65.203125 L93.609375,65.203125 L93.609375,66.453125 C93.7135422,69.5781406 92.9323,72.1822813 91.265625,74.265625 L91.265625,74.265625 Z M90.09375,59.578125 L90.09375,57.625 L98.53125,57.625 C98.4270828,57.3124984 98.2708344,56.8437531 98.0625,56.21875 C98.0104164,56.0624992 97.9583336,55.9322922 97.90625,55.828125 L100.328125,55.515625 C100.380209,55.8281266 100.510416,56.2968719 100.71875,56.921875 C100.822917,57.2343766 100.901041,57.4687492 100.953125,57.625 L108.296875,57.625 L108.296875,59.578125 L90.09375,59.578125 Z M112.203125,63.484375 L112.203125,56.453125 L125.796875,56.453125 L125.796875,63.484375 L112.203125,63.484375 Z M120.015625,74.1875 L120.015625,65.4375 L127.59375,65.4375 L127.59375,74.1875 L125.640625,74.1875 L125.640625,73.09375 L121.96875,73.09375 L121.96875,74.1875 L120.015625,74.1875 Z M110.40625,74.1875 L110.40625,65.4375 L117.90625,65.4375 L117.90625,74.1875 L115.953125,74.1875 L115.953125,73.09375 L112.359375,73.09375 L112.359375,74.1875 L110.40625,74.1875 Z M114.3125,58.328125 L114.3125,61.609375 L123.6875,61.609375 L123.6875,58.328125 L114.3125,58.328125 Z M121.96875,67.234375 L121.96875,71.453125 L125.640625,71.453125 L125.640625,67.234375 L121.96875,67.234375 Z M112.359375,67.234375 L112.359375,71.453125 L115.953125,71.453125 L115.953125,67.234375 L112.359375,67.234375 Z" id="产品" fill="#FFFFFF" sketch:type="MSShapeGroup"></path>
                <path d="M170.25,32.328125 L170.25,30.453125 L183.140625,30.453125 L183.140625,32.328125 L176.734375,32.328125 C175.692703,33.8385492 174.598964,35.3229094 173.453125,36.78125 C174.078128,36.7291664 175.119784,36.6770836 176.578125,36.625 C177.776048,36.5729164 178.635414,36.546875 179.15625,36.546875 L177.515625,34.125 L179.234375,33.265625 C179.390626,33.526043 179.65104,33.9166641 180.015625,34.4375 C181.421882,36.364593 182.385414,37.7708289 182.90625,38.65625 L181.109375,39.671875 L180.328125,38.34375 C179.39062,38.3958336 178.08855,38.4479164 176.421875,38.5 C175.015618,38.6041672 173.973962,38.65625 173.296875,38.65625 C172.880206,38.65625 172.307295,38.7083328 171.578125,38.8125 C171.369791,38.8645836 171.239584,38.890625 171.1875,38.890625 L170.328125,37.015625 C170.848961,36.755207 171.343748,36.3645859 171.8125,35.84375 C172.489587,35.1145797 173.29687,33.9427164 174.234375,32.328125 L170.25,32.328125 Z M165.40625,43.1875 L164.46875,41 C164.937502,40.5833313 165.692703,39.8541719 166.734375,38.8125 L166.734375,33.109375 L164.625,33.109375 L164.625,31.078125 L168.84375,31.078125 L168.84375,38.578125 C169.833338,40.0885492 171.369781,40.84375 173.453125,40.84375 C177.932314,40.84375 181.265614,40.8177086 183.453125,40.765625 C183.192707,41.3385445 182.984376,41.9895797 182.828125,42.71875 C180.119778,42.71875 176.838561,42.6666672 172.984375,42.5625 C170.74478,42.5104164 169.052089,41.781257 167.90625,40.375 C167.281247,40.9479195 166.447922,41.8854102 165.40625,43.1875 L165.40625,43.1875 Z M171.34375,27.5625 L171.34375,25.6875 L182.046875,25.6875 L182.046875,27.5625 L171.34375,27.5625 Z M167.90625,29.359375 C167.593748,28.8906227 167.046879,28.0572977 166.265625,26.859375 C165.848956,26.2864555 165.562501,25.869793 165.40625,25.609375 L167.125,24.671875 C168.114588,25.8697977 168.999996,27.0677023 169.78125,28.265625 L167.90625,29.359375 Z M186.421875,43.265625 L186.421875,37.5625 L201.5,37.5625 L201.5,43.265625 L199.390625,43.265625 L199.390625,42.40625 L188.53125,42.40625 L188.53125,43.265625 L186.421875,43.265625 Z M187.90625,36.234375 L187.90625,31.78125 L200.09375,31.78125 L200.09375,36.234375 L187.90625,36.234375 Z M196.109375,28.421875 L196.109375,27.484375 L191.890625,27.484375 L191.890625,28.421875 L189.859375,28.421875 L189.859375,27.484375 L184.625,27.484375 L184.625,25.84375 L189.859375,25.84375 L189.859375,24.515625 L191.890625,24.515625 L191.890625,25.84375 L196.109375,25.84375 L196.109375,24.515625 L198.140625,24.515625 L198.140625,25.84375 L203.296875,25.84375 L203.296875,27.484375 L198.140625,27.484375 L198.140625,28.421875 L196.109375,28.421875 Z M185.09375,32.5625 L185.09375,29.046875 L202.828125,29.046875 L202.828125,32.5625 L200.796875,32.5625 L200.796875,30.53125 L187.203125,30.53125 L187.203125,32.5625 L185.09375,32.5625 Z M188.53125,39.046875 L188.53125,41 L199.390625,41 L199.390625,39.046875 L188.53125,39.046875 Z M189.9375,33.265625 L189.9375,34.75 L198.0625,34.75 L198.0625,33.265625 L189.9375,33.265625 Z" id="运营" fill="#FFFFFF" sketch:type="MSShapeGroup"></path>
                <path d="M255.5625,74.265625 L254.3125,72.625 C249.520809,72.8333344 246.161468,73.0156242 244.234375,73.171875 C243.348954,73.171875 242.593753,73.2499992 241.96875,73.40625 L241.03125,71.53125 C241.656253,71.1145813 242.229164,70.6458359 242.75,70.125 C244.677093,67.7812383 246.369784,65.3073047 247.828125,62.703125 L249.9375,63.796875 C248.322909,66.2448039 246.50001,68.7447789 244.46875,71.296875 C248.062518,71.0885406 250.87499,70.9583336 252.90625,70.90625 C252.541665,70.3854141 251.968754,69.6041719 251.1875,68.5625 C250.770831,67.9895805 250.458334,67.572918 250.25,67.3125 L251.890625,66.21875 C253.244798,67.9375086 255.093738,70.2031109 257.4375,73.015625 L255.5625,74.265625 Z M257.203125,65.4375 C253.973942,63.3020727 251.656257,60.3854352 250.25,56.6875 L252.203125,55.90625 C253.557298,59.2396 255.666652,61.739575 258.53125,63.40625 C258.427083,63.6145844 258.218752,63.9531227 257.90625,64.421875 C257.593748,64.8906273 257.359376,65.2291656 257.203125,65.4375 L257.203125,65.4375 Z M240.875,65.75 C240.406248,65.0729133 239.911461,64.4479195 239.390625,63.875 C242.151055,61.8958234 244.260409,59.3437656 245.71875,56.21875 L247.75,57 C246.135409,60.4375172 243.843765,63.3541547 240.875,65.75 L240.875,65.75 Z M260.953125,61.375 L260.953125,59.421875 L265.171875,59.421875 C264.494788,58.4843703 263.739587,57.5208383 262.90625,56.53125 L264.703125,55.59375 C265.588546,56.5312547 266.473954,57.5989523 267.359375,58.796875 L266.03125,59.421875 L270.25,59.421875 C270.927087,58.5885375 271.812495,57.2864672 272.90625,55.515625 L275.09375,56.453125 C274.260413,57.4947969 273.453129,58.4843703 272.671875,59.421875 L277.046875,59.421875 L277.046875,61.375 L270.015625,61.375 C270.015625,62.8333406 269.989584,63.8749969 269.9375,64.5 L278.0625,64.5 L278.0625,66.453125 L270.25,66.453125 C271.291672,69.4218898 273.999978,71.2968711 278.375,72.078125 C278.166666,72.338543 277.906252,72.7552055 277.59375,73.328125 C277.333332,73.6927102 277.151042,73.9531242 277.046875,74.109375 C272.723937,72.8072852 270.01563,70.8541797 268.921875,68.25 C268.296872,70.6458453 265.66669,72.6510336 261.03125,74.265625 C260.666665,73.7447891 260.19792,73.1197953 259.625,72.390625 C264.520858,71.0364516 267.124998,69.0573047 267.4375,66.453125 L259.9375,66.453125 L259.9375,64.5 L267.671875,64.5 C267.776042,63.6145789 267.828125,62.5729227 267.828125,61.375 L260.953125,61.375 Z" id="公关" fill="#FFFFFF" sketch:type="MSShapeGroup"></path>
                <path d="M324.15625,30.21875 L324.15625,28.265625 L329.390625,28.265625 L329.390625,24.59375 L331.34375,24.59375 L331.34375,28.265625 L333.453125,28.265625 L333.453125,30.21875 L331.34375,30.21875 L331.34375,40.453125 C331.395834,42.1198 330.536467,42.953125 328.765625,42.953125 L326.109375,42.953125 C326.005208,42.3281219 325.875001,41.6770867 325.71875,41 C326.187502,41.0520836 326.916662,41.078125 327.90625,41.078125 C328.947922,41.1302086 329.442709,40.7395875 329.390625,39.90625 L329.390625,32.796875 C328.140619,35.4010547 326.369803,37.6406156 324.078125,39.515625 C323.973958,39.4114578 323.739585,39.1770852 323.375,38.8125 C323.010415,38.3958313 322.750001,38.1093758 322.59375,37.953125 C325.250013,36.026032 327.307284,33.4479328 328.765625,30.21875 L324.15625,30.21875 Z M315.40625,37.40625 L315.40625,25.453125 L323.21875,25.453125 L323.21875,37.25 L321.5,37.25 L321.5,27.328125 L317.046875,27.328125 L317.046875,37.40625 L315.40625,37.40625 Z M322.59375,42.328125 C322.124998,41.8593727 321.42188,41.1822961 320.484375,40.296875 L319.390625,39.203125 C318.921873,40.5052148 317.671885,41.859368 315.640625,43.265625 C315.536458,43.1614578 315.380209,42.979168 315.171875,42.71875 C315.067708,42.5104156 314.781252,42.1718773 314.3125,41.703125 C316.031259,40.7135367 317.124998,39.6979219 317.59375,38.65625 C318.16667,37.6145781 318.453125,36.0520937 318.453125,33.96875 L318.453125,28.734375 L320.171875,28.734375 L320.171875,34.125 C320.171875,35.3750062 320.093751,36.4166625 319.9375,37.25 C320.875005,38.0833375 322.151034,39.2552008 323.765625,40.765625 C323.869792,40.8697922 323.947916,40.9479164 324,41 L322.59375,42.328125 Z M335.25,34.75 C335.197916,34.5937492 335.067709,34.3072937 334.859375,33.890625 C334.651041,33.4218727 334.494792,33.0833344 334.390625,32.875 C337.515641,32.5104148 340.015616,32.0156281 341.890625,31.390625 C340.848953,30.7656219 339.833338,29.9322969 338.84375,28.890625 C338.062496,29.5677117 337.177088,30.2968711 336.1875,31.078125 C335.927082,30.7135398 335.458337,30.1927117 334.78125,29.515625 C337.072928,28.0572844 338.947909,26.3906344 340.40625,24.515625 L342.671875,24.828125 C342.30729,25.2968773 341.968752,25.7135398 341.65625,26.078125 L351.265625,26.078125 L351.265625,27.953125 C349.494783,29.6198 347.95834,30.7656219 346.65625,31.390625 C348.583343,31.9635445 350.874987,32.3541656 353.53125,32.5625 C353.374999,32.8750016 353.140627,33.3958297 352.828125,34.125 C352.776041,34.2812508 352.723959,34.3854164 352.671875,34.4375 C349.182274,34.0729148 346.369802,33.4479211 344.234375,32.5625 C342.255198,33.3958375 339.260437,34.1249969 335.25,34.75 L335.25,34.75 Z M344.078125,42.953125 C344.078125,42.692707 344.026042,42.2760445 343.921875,41.703125 C343.817708,41.3385398 343.765625,41.1041672 343.765625,41 L345.40625,41 L347.125,41 C348.375006,41.1041672 349.026041,40.5572977 349.078125,39.359375 C349.078125,39.1510406 349.104166,38.8125023 349.15625,38.34375 L349.15625,37.328125 L343.21875,37.328125 C342.802081,40.0364719 340.354189,42.0416602 335.875,43.34375 C335.718749,43.1354156 335.484377,42.7708359 335.171875,42.25 C334.859373,41.8333313 334.677084,41.5729172 334.625,41.46875 C338.427102,40.5833289 340.562498,39.2031344 341.03125,37.328125 L335.796875,37.328125 L335.796875,35.609375 L341.421875,35.609375 C341.526042,35.0364555 341.578125,34.4114617 341.578125,33.734375 L343.765625,33.734375 L343.53125,35.609375 L351.421875,35.609375 C351.369791,37.015632 351.291667,38.3177023 351.1875,39.515625 C351.135416,41.8593867 349.885429,42.9791672 347.4375,42.875 C346.656246,42.9270836 345.536466,42.953125 344.078125,42.953125 L344.078125,42.953125 Z M348.53125,27.875 L340.40625,27.875 C341.604173,29.0208391 342.880202,29.9062469 344.234375,30.53125 C345.640632,29.9062469 347.072909,29.0208391 348.53125,27.875 L348.53125,27.875 Z" id="财务" fill="#FFFFFF" sketch:type="MSShapeGroup"></path>
                <path d="M395.484375,60.671875 L395.484375,58.796875 L400.40625,58.796875 L400.40625,55.59375 L402.515625,55.59375 L402.515625,58.796875 L407.515625,58.796875 L407.515625,60.671875 L402.515625,60.671875 L402.515625,64.1875 L408.375,64.1875 L408.375,66.0625 L402.046875,66.0625 C400.901036,67.729175 399.546883,69.526032 397.984375,71.453125 L404.234375,71.21875 C403.765623,70.4374961 403.140629,69.5000055 402.359375,68.40625 L404.078125,67.46875 C404.651045,68.2500039 405.588535,69.5260328 406.890625,71.296875 C407.515628,72.1302125 407.958332,72.7291648 408.21875,73.09375 L406.34375,74.265625 L405.484375,72.859375 C404.859372,72.9114586 404.000005,72.9635414 402.90625,73.015625 C400.822906,73.1197922 399.286463,73.1979164 398.296875,73.25 C397.046869,73.3020836 396.187502,73.4062492 395.71875,73.5625 L394.859375,71.6875 C395.484378,71.3749984 396.005206,70.9062531 396.421875,70.28125 C397.463547,69.0833273 398.45312,67.6770914 399.390625,66.0625 L394.703125,66.0625 L394.703125,64.1875 L400.40625,64.1875 L400.40625,60.671875 L395.484375,60.671875 Z M391.96875,74.109375 L389.78125,73.40625 C390.302086,72.0520766 391.031245,69.7864742 391.96875,66.609375 C392.125001,66.6614586 392.385415,66.7656242 392.75,66.921875 C393.32292,67.1302094 393.739582,67.2604164 394,67.3125 C393.843749,67.7812523 393.583335,68.6406188 393.21875,69.890625 C392.697914,71.6614672 392.281252,73.0677031 391.96875,74.109375 L391.96875,74.109375 Z M392.671875,65.125 C392.30729,64.7604148 391.708338,64.2135453 390.875,63.484375 C390.249997,62.9635391 389.807293,62.572918 389.546875,62.3125 L390.875,60.828125 C391.239585,61.1406266 391.916662,61.6874961 392.90625,62.46875 C393.531253,62.9375023 393.947916,63.2760406 394.15625,63.484375 L392.671875,65.125 Z M393.296875,60.046875 C392.984373,59.7343734 392.463545,59.2656281 391.734375,58.640625 C391.005205,57.9635383 390.458335,57.494793 390.09375,57.234375 L391.5,55.828125 C391.760418,56.088543 392.229163,56.4791641 392.90625,57 C393.791671,57.7291703 394.390623,58.223957 394.703125,58.484375 L393.296875,60.046875 Z M415.328125,62.234375 L415.328125,62 C415.223958,62.1562508 415.067709,62.3906234 414.859375,62.703125 C414.651041,63.0677102 414.286461,63.6406211 413.765625,64.421875 L413.765625,74.1875 L411.8125,74.1875 L411.8125,66.84375 C411.447915,67.3125023 410.875004,67.9374961 410.09375,68.71875 C410.041666,68.458332 409.937501,68.0677109 409.78125,67.546875 C409.624999,67.1302063 409.520834,66.8177094 409.46875,66.609375 C411.083341,65.0468672 412.489577,63.1458445 413.6875,60.90625 L415.328125,61.921875 L415.328125,60.59375 L420.09375,60.59375 L420.09375,59.03125 L416.265625,59.03125 L416.265625,57.390625 L420.09375,57.390625 L420.09375,55.59375 L422.125,55.59375 L422.125,57.390625 L426.96875,57.390625 L426.96875,60.59375 L428.453125,60.59375 L428.453125,62.234375 L426.96875,62.234375 L426.96875,65.4375 L422.125,65.4375 L422.125,66.921875 L427.4375,66.921875 L427.4375,68.5625 L422.125,68.5625 L422.125,70.203125 L428.296875,70.203125 L428.296875,71.84375 L422.125,71.84375 L422.125,74.265625 L420.09375,74.265625 L420.09375,71.84375 L414.546875,71.84375 L414.546875,70.203125 L420.09375,70.203125 L420.09375,68.5625 L415.40625,68.5625 L415.40625,66.921875 L420.09375,66.921875 L420.09375,65.4375 L415.953125,65.4375 L415.953125,63.796875 L420.09375,63.796875 L420.09375,62.234375 L415.328125,62.234375 Z M410.5625,62.3125 C410.458333,61.9999984 410.250002,61.5052117 409.9375,60.828125 C409.833333,60.567707 409.755209,60.3854172 409.703125,60.28125 C411.161466,59.0312438 412.515619,57.4687594 413.765625,55.59375 L415.484375,56.6875 C413.8177,58.9791781 412.177091,60.8541594 410.5625,62.3125 L410.5625,62.3125 Z M425.09375,59.03125 L422.125,59.03125 L422.125,60.59375 L425.09375,60.59375 L425.09375,59.03125 Z M422.125,62.234375 L422.125,63.796875 L425.09375,63.796875 L425.09375,62.234375 L422.125,62.234375 Z" id="法律" fill="#FFFFFF" sketch:type="MSShapeGroup"></path>
                <path d="M484.4375,32.109375 C482.458323,31.3802047 480.843756,30.6510453 479.59375,29.921875 C478.29166,30.7552125 476.62501,31.5364547 474.59375,32.265625 C474.385416,31.7447891 474.072919,31.1718781 473.65625,30.546875 C473.447916,31.3802125 472.848963,31.8229164 471.859375,31.875 C471.338539,31.9270836 470.713545,31.953125 469.984375,31.953125 C469.932291,31.7447906 469.880209,31.4583352 469.828125,31.09375 C469.723958,30.6249977 469.645834,30.2864594 469.59375,30.078125 L470.140625,30.078125 C470.453127,30.1302086 470.713541,30.15625 470.921875,30.15625 C471.651045,30.2083336 471.989584,29.8958367 471.9375,29.21875 L471.9375,26.015625 L469.4375,26.015625 C469.333333,28.4635539 468.812505,30.5468664 467.875,32.265625 C467.718749,32.1093742 467.432294,31.8489602 467.015625,31.484375 C466.703123,31.1197898 466.468751,30.8854172 466.3125,30.78125 C466.88542,29.8437453 467.249999,28.8802133 467.40625,27.890625 C467.562501,26.9010367 467.640625,25.2343867 467.640625,22.890625 L467.640625,14.375 L473.734375,14.375 L473.734375,29.84375 C473.734375,30.0520844 473.708334,30.2343742 473.65625,30.390625 C475.427092,29.9218727 476.885411,29.2968789 478.03125,28.515625 C476.989578,27.4739531 476.078129,26.0677172 475.296875,24.296875 L476.46875,23.828125 L474.828125,23.828125 L474.828125,21.953125 L484.28125,21.953125 L484.28125,23.90625 C483.343745,25.8854266 482.302089,27.4479109 481.15625,28.59375 C482.302089,29.2708367 483.760408,29.7916648 485.53125,30.15625 C485.114581,30.8854203 484.750002,31.5364555 484.4375,32.109375 L484.4375,32.109375 Z M475.375,21.5625 C474.749997,20.9374969 474.281252,20.494793 473.96875,20.234375 C475.583341,19.4010375 476.312501,18.0989672 476.15625,16.328125 L476.15625,14.453125 L483.109375,14.453125 L483.109375,17.890625 C483.057291,18.6718789 483.39583,19.0364586 484.125,18.984375 L485.453125,18.984375 C485.401041,19.244793 485.348959,19.6093727 485.296875,20.078125 C485.244791,20.3906266 485.21875,20.6249992 485.21875,20.78125 L483.34375,20.78125 C481.885409,20.8333336 481.182291,20.1041742 481.234375,18.59375 L481.234375,16.25 L478.03125,16.25 L478.03125,16.71875 C478.187501,18.8020937 477.302093,20.4166609 475.375,21.5625 L475.375,21.5625 Z M482.171875,23.828125 L477.09375,23.828125 C477.82292,25.2864656 478.656245,26.4583289 479.59375,27.34375 C480.531255,26.4062453 481.390621,25.234382 482.171875,23.828125 L482.171875,23.828125 Z M469.515625,23.671875 L469.515625,24.296875 L471.9375,24.296875 L471.9375,21.015625 L469.515625,21.015625 L469.515625,23.671875 Z M469.515625,16.09375 L469.515625,19.375 L471.9375,19.375 L471.9375,16.09375 L469.515625,16.09375 Z M504.28125,32.03125 C501.833321,30.5729094 500.114588,29.2708391 499.125,28.125 C497.770827,29.4791734 495.869804,30.859368 493.421875,32.265625 C493.265624,32.0572906 492.953127,31.6406281 492.484375,31.015625 C492.276041,30.755207 492.119792,30.5468758 492.015625,30.390625 C494.463554,29.2447859 496.390618,27.9166742 497.796875,26.40625 C496.1302,24.1145719 495.01042,21.0937688 494.4375,17.34375 L496.3125,16.875 L493.734375,16.875 L493.734375,14.84375 L504.28125,14.84375 L504.28125,16.875 C503.395829,21.0937711 502.145841,24.2708227 500.53125,26.40625 C501.781256,27.812507 503.473948,29.0364531 505.609375,30.078125 C505.036455,30.8593789 504.593752,31.5104141 504.28125,32.03125 L504.28125,32.03125 Z M486.859375,19.140625 L486.859375,17.265625 L489.28125,17.265625 L489.28125,13.59375 L491.3125,13.59375 L491.3125,17.265625 L493.578125,17.265625 L493.578125,19.140625 L491.3125,19.140625 L491.3125,22.109375 L492.015625,21.40625 C492.95313,22.2916711 493.786455,23.1249961 494.515625,23.90625 L493.1875,25.3125 C492.874998,24.8958313 492.302087,24.2187547 491.46875,23.28125 C491.416666,23.2291664 491.364584,23.1770836 491.3125,23.125 L491.3125,32.1875 L489.28125,32.1875 L489.28125,23.203125 C488.812498,24.7135492 488.031255,26.2499922 486.9375,27.8125 C486.885416,27.2395805 486.729168,26.3020898 486.46875,25 C487.614589,23.4374922 488.55208,21.4843867 489.28125,19.140625 L486.859375,19.140625 Z M502.171875,16.875 L496.390625,16.875 C496.911461,20.1041828 497.82291,22.7343648 499.125,24.765625 C500.531257,22.7864484 501.546872,20.1562664 502.171875,16.875 L502.171875,16.875 Z M466.703125,50.328125 L466.703125,48.609375 L474.984375,48.609375 L474.984375,46.890625 L477.015625,46.890625 L477.015625,48.609375 L485.296875,48.609375 L485.296875,50.328125 L478.421875,50.328125 C480.08855,51.8906328 482.432277,53.0364547 485.453125,53.765625 C485.036456,54.3385445 484.671877,54.9374969 484.359375,55.5625 C480.973941,54.4166609 478.526049,52.9583422 477.015625,51.1875 L477.015625,56.265625 L474.984375,56.265625 L474.984375,51.109375 C473.369784,53.036468 470.89585,54.5729109 467.5625,55.71875 C467.249998,55.1458305 466.91146,54.5729195 466.546875,54 C469.411473,53.1666625 471.703116,51.9427164 473.421875,50.328125 L466.703125,50.328125 Z M477.171875,46.1875 L477.171875,39 L484.28125,39 L484.28125,46.1875 L477.171875,46.1875 Z M467.953125,47.671875 C467.484373,47.1510391 467.015627,46.6562523 466.546875,46.1875 C468.317717,44.9895773 469.281249,43.3489687 469.4375,41.265625 L467.015625,41.265625 L467.015625,39.46875 L469.515625,39.46875 C469.567709,38.9479141 469.59375,38.2968789 469.59375,37.515625 L471.46875,37.515625 C471.46875,38.1927117 471.442709,38.8437469 471.390625,39.46875 L475.609375,39.46875 C475.609375,40.3541711 475.583334,41.6562414 475.53125,43.375 C475.479166,43.7395852 475.453125,44.0260406 475.453125,44.234375 C475.453125,45.9531336 474.671883,46.8125 473.109375,46.8125 L471.078125,46.8125 C471.026041,46.6041656 470.973959,46.2916687 470.921875,45.875 C470.817708,45.5104148 470.765625,45.2500008 470.765625,45.09375 L472.484375,45.09375 C473.213545,45.1458336 473.604166,44.7552125 473.65625,43.921875 C473.65625,43.6093734 473.682291,43.1145867 473.734375,42.4375 L473.734375,41.265625 L471.3125,41.265625 C471.104166,43.9739719 469.984385,46.1093672 467.953125,47.671875 L467.953125,47.671875 Z M479.046875,40.796875 L479.046875,44.390625 L482.40625,44.390625 L482.40625,40.796875 L479.046875,40.796875 Z M497.5625,55.953125 C497.510416,55.4843727 497.354168,54.8333375 497.09375,54 L497.09375,53.921875 C497.82292,53.9739586 498.942701,54 500.453125,54 C501.859382,54.0520836 502.536459,53.375007 502.484375,51.96875 C502.588542,49.9374898 502.666666,46.6823141 502.71875,42.203125 L496.15625,42.203125 C495.947916,42.5156266 495.635419,43.0104133 495.21875,43.6875 C494.802081,44.3125031 494.489584,44.8072898 494.28125,45.171875 C494.072916,44.9635406 493.682295,44.6250023 493.109375,44.15625 C492.953124,43.9999992 492.822917,43.8958336 492.71875,43.84375 C492.875001,43.6874992 492.979166,43.5312508 493.03125,43.375 L491,43.375 L491,44.859375 C491.468752,45.2239602 492.302077,45.8749953 493.5,46.8125 C493.656251,46.9687508 493.786458,47.0729164 493.890625,47.125 L492.71875,48.765625 C492.562499,48.6093742 492.328127,48.3750016 492.015625,48.0625 C491.546873,47.6458313 491.208334,47.3333344 491,47.125 L491,56.265625 L489.046875,56.265625 L489.046875,47.4375 C488.526039,49.0000078 487.822921,50.4322852 486.9375,51.734375 C486.833333,51.1614555 486.703126,50.4062547 486.546875,49.46875 C486.442708,49.1562484 486.390625,48.9479172 486.390625,48.84375 C487.48438,47.2291586 488.343747,45.4062602 488.96875,43.375 L486.703125,43.375 L486.703125,41.5 L489.046875,41.5 L489.046875,37.671875 L491,37.671875 L491,41.5 L493.109375,41.5 L493.109375,43.296875 C494.20313,41.7343672 495.218745,39.8333445 496.15625,37.59375 L498.1875,37.984375 C498.083333,38.1927094 497.927084,38.5052063 497.71875,38.921875 C497.458332,39.5468781 497.250001,39.989582 497.09375,40.25 L504.828125,40.25 C504.723958,44.5729383 504.619792,48.6353977 504.515625,52.4375 C504.567709,54.7291781 503.421887,55.875 501.078125,55.875 C500.661456,55.875 500.010421,55.9010414 499.125,55.953125 L497.5625,55.953125 L497.5625,55.953125 Z M493.890625,51.890625 L493.109375,50.09375 C493.526044,49.833332 493.916665,49.3906281 494.28125,48.765625 C495.375005,46.9947828 496.234372,45.2500086 496.859375,43.53125 L498.8125,44.234375 C497.458327,46.8385547 496.442712,48.6874945 495.765625,49.78125 L499.4375,49.625 C499.281249,49.3124984 499.072918,48.8437531 498.8125,48.21875 C498.499998,47.5937469 498.265626,47.1250016 498.109375,46.8125 L499.671875,46.109375 C500.557296,47.77605 501.442704,49.5468656 502.328125,51.421875 L500.609375,52.203125 L500.21875,51.265625 C498.395824,51.3177086 496.911464,51.4218742 495.765625,51.578125 C495.088538,51.6302086 494.463545,51.7343742 493.890625,51.890625 L493.890625,51.890625 Z" id="股权" fill="#FFFFFF" sketch:type="MSShapeGroup"></path>
            </g>
        </g>
    </g>
</svg>