<?xml version="1.0" encoding="UTF-8" standalone="no"?>
<svg width="245px" height="47px" viewBox="0 0 245 47" version="1.1" xmlns="http://www.w3.org/2000/svg" xmlns:xlink="http://www.w3.org/1999/xlink" xmlns:sketch="http://www.bohemiancoding.com/sketch/ns">
    <!-- Generator: Sketch 3.4.3 (16044) - http://www.bohemiancoding.com/sketch -->
    <title>猎桔公开课</title>
    <desc>Created with Sketch.</desc>
    <defs></defs>
    <g id="Page-1" stroke="none" stroke-width="1" fill="none" fill-rule="evenodd" sketch:type="MSPage">
        <g id="Artboard-1" sketch:type="MSArtboardGroup" transform="translate(-598.000000, -234.000000)" fill="#FFFFFF">
            <path d="M631.71875,238.671875 L631.71875,234.960938 L638.359375,234.960938 L638.359375,238.671875 L642.070312,238.671875 L642.070312,244.53125 L638.359375,244.53125 L638.359375,251.367188 L642.070312,251.367188 L642.070312,257.421875 L615.3125,257.421875 L615.3125,251.367188 L618.242188,251.367188 L618.242188,244.53125 L615.898438,244.53125 L615.898438,238.671875 L618.046875,238.671875 L618.046875,235.15625 L624.6875,235.15625 L624.6875,238.671875 L631.71875,238.671875 Z M608.085938,238.085938 L609.84375,235.351562 L617.65625,235.351562 L611.992188,245.117188 L613.164062,248.242188 L613.164062,275.78125 C613.164062,278.125012 611.992199,279.296875 609.648438,279.296875 L600.078125,279.296875 L600.078125,274.414062 L605.546875,274.414062 C606.067711,274.544271 606.393229,274.218754 606.523438,273.4375 L606.523438,262.890625 L605.546875,264.0625 C605.026039,264.583336 604.3099,264.778646 603.398438,264.648438 L598.90625,264.648438 L598.90625,259.179688 L600.46875,259.375 C601.380213,259.505209 602.161455,259.114588 602.8125,258.203125 L606.523438,254.101562 L606.523438,250.390625 L598.710938,250.390625 L598.710938,244.921875 L603.984375,244.921875 L598.710938,235.546875 L606.71875,235.546875 L608.085938,238.085938 Z M631.71875,251.367188 L631.71875,244.53125 L624.6875,244.53125 L624.6875,251.367188 L631.71875,251.367188 Z M616.09375,279.6875 L616.09375,259.960938 L641.679688,259.960938 L641.679688,276.5625 C641.679688,278.645844 640.442721,279.6875 637.96875,279.6875 L616.09375,279.6875 Z M623.320312,267.382812 L634.453125,267.382812 L634.453125,264.648438 L623.320312,264.648438 L623.320312,267.382812 Z M634.453125,273.828125 L634.453125,271.875 L623.320312,271.875 L623.320312,275 L633.476562,275 C634.127607,275 634.453125,274.609379 634.453125,273.828125 L634.453125,273.828125 Z M664.921875,238.671875 L675.859375,238.671875 L675.859375,235.15625 L682.695312,235.15625 L682.695312,238.671875 L692.851562,238.671875 L692.851562,244.140625 L682.695312,244.140625 L682.695312,251.5625 L692.265625,251.5625 L692.265625,257.03125 L665.3125,257.03125 L665.3125,251.5625 L675.859375,251.5625 L675.859375,244.140625 L664.921875,244.140625 L664.921875,238.671875 Z M665.3125,258.984375 L692.070312,258.984375 L692.070312,272.851562 C691.809895,276.106787 689.921893,277.799479 686.40625,277.929688 L665.3125,277.929688 L665.3125,258.984375 Z M685.429688,270.898438 L685.429688,264.453125 L672.34375,264.453125 L672.34375,272.851562 L683.671875,272.851562 C684.973965,272.981771 685.559896,272.330736 685.429688,270.898438 L685.429688,270.898438 Z M648.320312,239.453125 L655.15625,239.453125 L655.15625,234.960938 L661.601562,234.960938 L661.601562,239.453125 L664.335938,239.453125 L664.335938,244.921875 L661.796875,244.921875 L661.796875,246.875 L663.945312,246.875 L663.945312,252.929688 L661.992188,252.929688 L661.992188,278.90625 L655.742188,278.90625 L655.742188,252.734375 L654.960938,252.734375 L654.570312,272.460938 C654.440104,275.585953 653.007826,277.148438 650.273438,277.148438 L647.539062,277.148438 L647.539062,272.070312 L648.125,272.070312 C648.776045,272.200521 649.101562,271.8099 649.101562,270.898438 L649.882812,246.875 L655.351562,246.875 L655.351562,244.921875 L648.320312,244.921875 L648.320312,239.453125 Z M703.984375,242.382812 L703.984375,235.546875 L731.328125,235.546875 C731.97917,235.546875 732.695309,236.067703 733.476562,237.109375 L738.164062,244.140625 C739.335943,245.833342 740.442703,246.614584 741.484375,246.484375 L742.851562,246.484375 L742.851562,253.320312 L737.773438,253.320312 C735.820303,253.450521 734.127611,252.408865 732.695312,250.195312 L728.203125,243.75 C727.55208,242.838537 726.835941,242.382812 726.054688,242.382812 L703.984375,242.382812 Z M698.125,251.953125 L700.273438,251.953125 C701.315109,252.213543 702.226559,251.562508 703.007812,250 L705.9375,244.921875 L714.921875,244.921875 L709.257812,255.664062 C707.825514,257.877615 705.677098,258.984375 702.8125,258.984375 L698.125,258.984375 L698.125,251.953125 Z M704.179688,271.09375 L717.265625,249.414062 L726.445312,249.414062 L713.75,271.09375 L730.742188,271.09375 L730.742188,277.929688 L700.078125,277.929688 L700.078125,271.09375 L704.179688,271.09375 Z M734.648438,275.585938 L724.6875,260.742188 L733.671875,260.742188 L741.09375,271.484375 C741.223959,271.875002 741.61458,272.070312 742.265625,272.070312 L743.046875,272.070312 L743.046875,277.929688 L739.140625,277.929688 C737.18749,277.799479 735.690109,277.018236 734.648438,275.585938 L734.648438,275.585938 Z M748.320312,235.351562 L792.460938,235.351562 L792.460938,242.1875 L789.726562,242.1875 L789.726562,253.90625 L792.460938,253.90625 L792.460938,260.742188 L789.726562,260.742188 L789.726562,279.492188 L782.304688,279.492188 L782.304688,260.742188 L759.257812,260.742188 L759.257812,275.976562 C759.51823,278.971369 758.21616,280.338543 755.351562,280.078125 L748.515625,280.078125 L748.515625,274.21875 L750.859375,274.21875 C751.51042,274.348959 751.835938,274.023441 751.835938,273.242188 L751.835938,260.742188 L748.515625,260.742188 L748.515625,253.90625 L751.835938,253.90625 L751.835938,242.1875 L748.320312,242.1875 L748.320312,235.351562 Z M782.304688,242.1875 L759.257812,242.1875 L759.257812,253.90625 L782.304688,253.90625 L782.304688,242.1875 Z M815.117188,256.445312 L815.117188,234.570312 L842.460938,234.570312 L842.460938,252.34375 C842.721355,255.468766 841.419285,256.835939 838.554688,256.445312 L832.304688,256.445312 L832.304688,258.984375 L842.65625,258.984375 L842.65625,264.453125 L832.304688,264.453125 L832.304688,279.6875 L826.054688,279.6875 L826.054688,264.453125 L814.921875,264.453125 L814.921875,258.984375 L826.054688,258.984375 L826.054688,256.445312 L815.117188,256.445312 Z M812.1875,235.546875 L812.1875,241.992188 L798.515625,241.992188 L798.515625,235.546875 L812.1875,235.546875 Z M832.304688,243.359375 L836.015625,243.359375 L836.015625,240.039062 L832.304688,240.039062 L832.304688,243.359375 Z M822.148438,240.039062 L822.148438,243.359375 L826.054688,243.359375 L826.054688,240.039062 L822.148438,240.039062 Z M836.015625,250.195312 L836.015625,247.851562 L832.304688,247.851562 L832.304688,251.367188 L834.84375,251.367188 C835.625004,251.497396 836.015625,251.106775 836.015625,250.195312 L836.015625,250.195312 Z M822.148438,247.851562 L822.148438,251.367188 L826.054688,251.367188 L826.054688,247.851562 L822.148438,247.851562 Z M802.617188,254.882812 L798.320312,254.882812 L798.320312,248.828125 L809.648438,248.828125 L809.648438,271.679688 C809.648438,272.851568 810.039059,273.372396 810.820312,273.242188 L812.96875,273.242188 L812.96875,279.296875 L806.71875,279.296875 C803.854152,279.427084 802.486979,277.994807 802.617188,275 L802.617188,254.882812 Z M814.726562,273.4375 L816.679688,273.4375 C817.330732,273.567709 817.851561,273.111984 818.242188,272.070312 L819.804688,266.40625 L825.664062,266.40625 L823.320312,275.585938 C822.929686,277.669281 821.627615,278.645834 819.414062,278.515625 L814.726562,278.515625 L814.726562,273.4375 Z M834.84375,275.976562 L832.890625,266.40625 L839.140625,266.40625 L840.3125,272.070312 C840.3125,272.981775 840.768225,273.372396 841.679688,273.242188 L842.65625,273.242188 L842.65625,278.515625 L838.164062,278.515625 C836.080719,278.515625 834.973959,277.669279 834.84375,275.976562 L834.84375,275.976562 Z" id="猎桔公开课" sketch:type="MSShapeGroup"></path>
        </g>
    </g>
</svg>