<?xml version="1.0" encoding="UTF-8" standalone="no"?>
<svg width="140px" height="140px" viewBox="0 0 140 140" version="1.1" xmlns="http://www.w3.org/2000/svg" xmlns:xlink="http://www.w3.org/1999/xlink" xmlns:sketch="http://www.bohemiancoding.com/sketch/ns">
    <!-- Generator: Sketch 3.4.3 (16044) - http://www.bohemiancoding.com/sketch -->
    <title>Rectangle 4 Copy 2 + Page 1</title>
    <desc>Created with Sketch.</desc>
    <defs></defs>
    <g id="Page-1" stroke="none" stroke-width="1" fill="none" fill-rule="evenodd" sketch:type="MSPage">
        <g id="Artboard-1" sketch:type="MSArtboardGroup" transform="translate(-940.000000, -723.000000)">
            <g id="Rectangle-4-Copy-2-+-Page-1" sketch:type="MSLayerGroup" transform="translate(940.000000, 723.000000)">
                <rect id="Rectangle-4-Copy-2" fill-opacity="0.08" fill="#FF6E00" sketch:type="MSShapeGroup" x="0" y="0" width="140" height="140" rx="100"></rect>
                <g id="Page-1" transform="translate(30.000000, 30.000000)" sketch:type="MSShapeGroup">
                    <g id="Group-26" transform="translate(0.224719, 0.280899)">
                        <path d="M4.21348315,0 C1.88764045,0 0,1.88764045 0,4.21348315 L0,36.5168539 L14.0449438,36.5168539 L11.2359551,29.494382 C11.2359551,25.6151685 14.3792135,22.4719101 18.258427,22.4719101 C22.1376404,22.4719101 25.2808989,25.6151685 25.2808989,29.494382 L22.4719101,36.5168539 L36.5168539,36.5168539 L36.5168539,0 L4.21348315,0 Z" id="Fill-2" fill="#FFFFFF"></path>
                        <path d="M74.4382022,0 L42.1348315,0 L42.1348315,14.0449438 L49.1573034,11.2359551 C53.0365169,11.2359551 56.1797753,14.3792135 56.1797753,18.258427 C56.1797753,22.1376404 53.0365169,25.2808989 49.1573034,25.2808989 L42.1348315,22.4719101 L42.1348315,36.5168539 L78.6516854,36.5168539 L78.6516854,4.21348315 C78.6516854,1.88764045 76.7640449,0 74.4382022,0" id="Fill-4" fill="#FFCD78"></path>
                        <path d="M64.6067416,42.1348315 L67.4157303,49.1573034 C67.4157303,53.0365169 64.2724719,56.1797753 60.3932584,56.1797753 C56.5140449,56.1797753 53.3707865,53.0365169 53.3707865,49.1573034 L56.1797753,42.1348315 L42.1348315,42.1348315 L42.1348315,78.6516854 L74.4382022,78.6516854 C76.7640449,78.6516854 78.6516854,76.7640449 78.6516854,74.4382022 L78.6516854,42.1348315 L64.6067416,42.1348315 Z" id="Fill-6" fill="#FFFFFF"></path>
                        <path d="M0,42.1348315 L0,74.4382022 C0,76.7640449 1.88764045,78.6516854 4.21348315,78.6516854 L36.5168539,78.6516854 L36.5168539,64.6067416 L29.494382,67.4157303 C25.6151685,67.4157303 22.4719101,64.2724719 22.4719101,60.3932584 C22.4719101,56.5140449 25.6151685,53.3707865 29.494382,53.3707865 L36.5168539,56.1797753 L36.5168539,42.1348315 L0,42.1348315 Z" id="Fill-8" fill="#FF8761"></path>
                        <path d="M36.5168539,63.2022472 L36.5168539,78.6516854 L4.21348315,78.6516854 C1.88764045,78.6516854 0,76.7640449 0,74.4382022 L0,42.1348315 L36.5168539,42.1348315 L36.5168539,57.5842697" id="Stroke-10" stroke="#4D5152" stroke-width="2"></path>
                        <path d="M63.2022472,42.1348315 L78.6516854,42.1348315 L78.6516854,74.4382022 C78.6516854,76.7640449 76.7640449,78.6516854 74.4382022,78.6516854 L42.1348315,78.6516854 L42.1348315,42.1348315 L57.5842697,42.1348315" id="Stroke-12" stroke="#4D5152" stroke-width="2"></path>
                        <path d="M15.4494382,36.5168539 L0,36.5168539 L0,4.21348315 C0,1.88764045 1.88764045,0 4.21348315,0 L36.5168539,0 L36.5168539,36.5168539 L21.0674157,36.5168539" id="Stroke-14" stroke="#4D5152" stroke-width="2"></path>
                        <path d="M42.1348315,15.4494382 L42.1348315,0 L74.4382022,0 C76.7640449,0 78.6516854,1.88764045 78.6516854,4.21348315 L78.6516854,36.5168539 L42.1348315,36.5168539 L42.1348315,21.0674157" id="Stroke-16" stroke="#4D5152" stroke-width="2"></path>
                        <path d="M35.1123596,64.6067416 C33.8300562,66.3132022 31.7907303,67.4157303 29.494382,67.4157303 C25.6151685,67.4157303 22.4719101,64.2724719 22.4719101,60.3932584 C22.4719101,56.5140449 25.6151685,53.3707865 29.494382,53.3707865 C31.7907303,53.3707865 33.8272472,54.4719101 35.1095506,56.1755618" id="Stroke-18" stroke="#4D5152" stroke-width="2" stroke-linecap="round"></path>
                        <path d="M64.6067416,43.5393258 C66.3132022,44.8216292 67.4157303,46.8609551 67.4157303,49.1573034 C67.4157303,53.0365169 64.2724719,56.1797753 60.3932584,56.1797753 C56.5140449,56.1797753 53.3707865,53.0365169 53.3707865,49.1573034 C53.3707865,46.8595506 54.4733146,44.8202247 56.1797753,43.5393258" id="Stroke-20" stroke="#4D5152" stroke-width="2" stroke-linecap="round"></path>
                        <path d="M43.5393258,14.0449438 C44.8216292,12.3384831 46.8609551,11.2359551 49.1573034,11.2359551 C53.0365169,11.2359551 56.1797753,14.3792135 56.1797753,18.258427 C56.1797753,22.1376404 53.0365169,25.2808989 49.1573034,25.2808989 C46.8609551,25.2808989 44.8216292,24.1783708 43.5393258,22.4719101" id="Stroke-22" stroke="#4D5152" stroke-width="2" stroke-linecap="round"></path>
                        <path d="M14.0408708,35.1095506 C12.3372191,33.8272472 11.2360955,31.7907303 11.2360955,29.494382 C11.2360955,25.6151685 14.3793539,22.4719101 18.2585674,22.4719101 C22.1377809,22.4719101 25.2810393,25.6151685 25.2810393,29.494382 C25.2810393,31.7921348 24.1785112,33.8314607 22.4720506,35.1123596" id="Stroke-24" stroke="#4D5152" stroke-width="2" stroke-linecap="round"></path>
                    </g>
                </g>
            </g>
        </g>
    </g>
</svg>