<?xml version="1.0" encoding="UTF-8" standalone="no"?>
<svg width="140px" height="140px" viewBox="0 0 140 140" version="1.1" xmlns="http://www.w3.org/2000/svg" xmlns:xlink="http://www.w3.org/1999/xlink" xmlns:sketch="http://www.bohemiancoding.com/sketch/ns">
    <!-- Generator: Sketch 3.4.3 (16044) - http://www.bohemiancoding.com/sketch -->
    <title>Rectangle 4 + Page 1</title>
    <desc>Created with Sketch.</desc>
    <defs></defs>
    <g id="Page-1" stroke="none" stroke-width="1" fill="none" fill-rule="evenodd" sketch:type="MSPage">
        <g id="Artboard-1" sketch:type="MSArtboardGroup" transform="translate(-360.000000, -723.000000)">
            <g id="Rectangle-4-+-Page-1" sketch:type="MSLayerGroup" transform="translate(360.000000, 723.000000)">
                <rect id="Rectangle-4" fill-opacity="0.08" fill="#FF6E00" sketch:type="MSShapeGroup" x="0" y="0" width="140" height="140" rx="100"></rect>
                <g id="Page-1" transform="translate(25.000000, 20.000000)" sketch:type="MSShapeGroup">
                    <g id="Group-26" transform="translate(0.407609, 0.815217)">
                        <path d="M44.1576087,86.6168478 C23.5224185,86.6168478 6.79347826,69.8879076 6.79347826,49.2527174 C6.79347826,28.6175272 23.5224185,11.888587 44.1576087,11.888587 C64.7927989,11.888587 81.5217391,28.6175272 81.5217391,49.2527174 C81.5217391,69.8879076 64.7927989,86.6168478 44.1576087,86.6168478 Z" id="Fill-2" fill-opacity="0.5" fill="#FF8761"></path>
                        <path d="M59.4429348,49.2527174 C59.4429348,57.6953125 52.6002038,64.5380435 44.1576087,64.5380435 C35.7150136,64.5380435 28.8722826,57.6953125 28.8722826,49.2527174 C28.8722826,40.8101223 35.7150136,33.9673913 44.1576087,33.9673913 C52.6002038,33.9673913 59.4429348,40.8101223 59.4429348,49.2527174" id="Fill-4" fill="#FFFFFF"></path>
                        <path d="M59.4429348,49.2527174 C59.4429348,76.4538043 52.6002038,98.5054348 44.1576087,98.5054348 C35.7150136,98.5054348 28.8722826,76.4538043 28.8722826,49.2527174 C28.8722826,22.0516304 35.7150136,0 44.1576087,0 C52.6002038,0 59.4429348,22.0516304 59.4429348,49.2527174 L59.4429348,49.2527174 Z" id="Stroke-6" stroke="#4D5152" stroke-width="2" stroke-linejoin="round"></path>
                        <path d="M51.8002717,62.4896399 C28.2421875,76.0918818 5.72350543,81.1903872 1.50305707,73.8789062 C-2.71908967,66.5674253 12.9568614,49.6159986 36.5149457,36.0154552 C60.0696332,22.4132133 82.5900136,17.3147079 86.810462,24.6261889 C91.0326087,31.9376698 75.3549592,48.8890965 51.8002717,62.4896399 L51.8002717,62.4896399 Z" id="Stroke-8" stroke="#4D5152" stroke-width="2" stroke-linejoin="round"></path>
                        <path d="M51.8002717,36.0140965 C75.358356,49.6163383 91.0343071,66.5677649 86.8121603,73.8792459 C82.591712,81.1907269 60.0730299,76.0922215 36.5149457,62.491678 C12.9602582,48.8894361 -2.7173913,31.9380095 1.50475543,24.6265285 C5.7252038,17.3150476 28.2455842,22.413553 51.8002717,36.0140965 L51.8002717,36.0140965 Z" id="Stroke-10" stroke="#4D5152" stroke-width="2" stroke-linejoin="round"></path>
                        <path d="M50.951087,49.2527174 C50.951087,53.0044158 47.9093071,56.0461957 44.1576087,56.0461957 C40.4059103,56.0461957 37.3641304,53.0044158 37.3641304,49.2527174 C37.3641304,45.501019 40.4059103,42.4592391 44.1576087,42.4592391 C47.9093071,42.4592391 50.951087,45.501019 50.951087,49.2527174" id="Fill-12" fill="#FFCD78"></path>
                        <path d="M11.888587,39.0625 C11.888587,41.875 9.60597826,44.1576087 6.79347826,44.1576087 C3.98097826,44.1576087 1.69836957,41.875 1.69836957,39.0625 C1.69836957,36.25 3.98097826,33.9673913 6.79347826,33.9673913 C9.60597826,33.9673913 11.888587,36.25 11.888587,39.0625" id="Fill-14" fill="#FFFFFF"></path>
                        <path d="M11.888587,39.0625 C11.888587,41.875 9.60597826,44.1576087 6.79347826,44.1576087 C3.98097826,44.1576087 1.69836957,41.875 1.69836957,39.0625 C1.69836957,36.25 3.98097826,33.9673913 6.79347826,33.9673913 C9.60597826,33.9673913 11.888587,36.25 11.888587,39.0625 L11.888587,39.0625 Z" id="Stroke-16" stroke="#4D5152" stroke-width="2" stroke-linejoin="round"></path>
                        <path d="M59.4429348,86.6168478 C59.4429348,89.4293478 57.1603261,91.7119565 54.3478261,91.7119565 C51.5353261,91.7119565 49.2527174,89.4293478 49.2527174,86.6168478 C49.2527174,83.8043478 51.5353261,81.5217391 54.3478261,81.5217391 C57.1603261,81.5217391 59.4429348,83.8043478 59.4429348,86.6168478" id="Fill-18" fill="#FFFFFF"></path>
                        <path d="M59.4429348,86.6168478 C59.4429348,89.4293478 57.1603261,91.7119565 54.3478261,91.7119565 C51.5353261,91.7119565 49.2527174,89.4293478 49.2527174,86.6168478 C49.2527174,83.8043478 51.5353261,81.5217391 54.3478261,81.5217391 C57.1603261,81.5217391 59.4429348,83.8043478 59.4429348,86.6168478 L59.4429348,86.6168478 Z" id="Stroke-20" stroke="#4D5152" stroke-width="2" stroke-linejoin="round"></path>
                        <path d="M76.4266304,22.0788043 C76.4266304,24.8913043 74.1440217,27.173913 71.3315217,27.173913 C68.5190217,27.173913 66.236413,24.8913043 66.236413,22.0788043 C66.236413,19.2663043 68.5190217,16.9836957 71.3315217,16.9836957 C74.1440217,16.9836957 76.4266304,19.2663043 76.4266304,22.0788043" id="Fill-22" fill="#FFFFFF"></path>
                        <path d="M76.4266304,22.0788043 C76.4266304,24.8913043 74.1440217,27.173913 71.3315217,27.173913 C68.5190217,27.173913 66.236413,24.8913043 66.236413,22.0788043 C66.236413,19.2663043 68.5190217,16.9836957 71.3315217,16.9836957 C74.1440217,16.9836957 76.4266304,19.2663043 76.4266304,22.0788043 L76.4266304,22.0788043 Z" id="Stroke-24" stroke="#4D5152" stroke-width="2" stroke-linejoin="round"></path>
                    </g>
                </g>
            </g>
        </g>
    </g>
</svg>