<?xml version="1.0" encoding="UTF-8" standalone="no"?>
<svg width="140px" height="140px" viewBox="0 0 140 140" version="1.1" xmlns="http://www.w3.org/2000/svg" xmlns:xlink="http://www.w3.org/1999/xlink" xmlns:sketch="http://www.bohemiancoding.com/sketch/ns">
    <!-- Generator: Sketch 3.4.3 (16044) - http://www.bohemiancoding.com/sketch -->
    <title>Rectangle 4 Copy + Page 1</title>
    <desc>Created with Sketch.</desc>
    <defs></defs>
    <g id="Page-1" stroke="none" stroke-width="1" fill="none" fill-rule="evenodd" sketch:type="MSPage">
        <g id="Artboard-1" sketch:type="MSArtboardGroup" transform="translate(-650.000000, -723.000000)">
            <g id="Rectangle-4-Copy-+-Page-1" sketch:type="MSLayerGroup" transform="translate(650.000000, 723.000000)">
                <rect id="Rectangle-4-Copy" fill-opacity="0.08" fill="#FF6E00" sketch:type="MSShapeGroup" x="0" y="0" width="140" height="140" rx="100"></rect>
                <g id="Page-1" transform="translate(20.000000, 20.000000)" sketch:type="MSShapeGroup">
                    <g id="Group-27">
                        <path d="M99.009901,50 C99.009901,77.3406559 76.8456064,99.5049505 49.5049505,99.5049505 C22.1642946,99.5049505 0,77.3406559 0,50 C0,22.6593441 22.1642946,0.495049505 49.5049505,0.495049505 C76.8456064,0.495049505 99.009901,22.6593441 99.009901,50" id="Fill-2" fill-opacity="0.5" fill="#FF8761"></path>
                        <path d="M58.7871287,99.5049505 L40.2227723,99.5049505 L40.2227723,63.9232673 L58.7871287,63.9232673 L58.7871287,99.5049505 Z" id="Fill-4" fill="#FFFFFF"></path>
                        <path d="M57.240099,12.8712871 C57.240099,17.1441832 53.7778465,20.6064356 49.5049505,20.6064356 C45.2320545,20.6064356 41.769802,17.1441832 41.769802,12.8712871 C41.769802,8.59839109 45.2320545,5.13613861 49.5049505,5.13613861 C53.7778465,5.13613861 57.240099,8.59839109 57.240099,12.8712871" id="Fill-6" fill="#FFFFFF"></path>
                        <path d="M49.5049505,99.5049505 L49.5049505,68.5643564" id="Stroke-7" stroke="#4D5152" stroke-width="2" stroke-linejoin="round"></path>
                        <path d="M58.7871287,63.9232673 L66.5222772,63.9232673 L66.5222772,36.0767327 C66.5222772,30.9498762 62.3669554,26.7945545 57.240099,26.7945545 L41.769802,26.7945545 C36.6444926,26.7945545 32.4876238,30.9498762 32.4876238,36.0767327 L32.4876238,63.9232673 L40.2227723,63.9232673" id="Fill-8" fill="#FF8761"></path>
                        <path d="M57.240099,12.8712871 C57.240099,17.1441832 53.7778465,20.6064356 49.5049505,20.6064356 C45.2320545,20.6064356 41.769802,17.1441832 41.769802,12.8712871 C41.769802,8.59839109 45.2320545,5.13613861 49.5049505,5.13613861 C53.7778465,5.13613861 57.240099,8.59839109 57.240099,12.8712871 L57.240099,12.8712871 Z" id="Stroke-9" stroke="#4D5152" stroke-width="2" stroke-linejoin="round"></path>
                        <path d="M58.7871287,63.9232673 L66.5222772,63.9232673 L66.5222772,36.0767327 C66.5222772,30.9498762 62.3669554,26.7945545 57.240099,26.7945545 L41.769802,26.7945545 C36.6444926,26.7945545 32.4876238,30.9498762 32.4876238,36.0767327 L32.4876238,63.9232673 L40.2227723,63.9232673" id="Stroke-10" stroke="#4D5152" stroke-width="2" stroke-linejoin="round"></path>
                        <path d="M32.4876238,99.5049505 L32.4876238,71.6584158 L38.6757426,71.6584158 L38.6757426,45.3589109 C38.6757426,41.0860149 35.2134901,37.6237624 30.9405941,37.6237624 L15.470297,37.6237624 C11.197401,37.6237624 7.73514851,41.0860149 7.73514851,45.3589109 L7.73514851,71.6584158 L13.9232673,71.6584158 L13.9232673,99.5049505" id="Fill-11" fill="#FFFFFF"></path>
                        <path d="M38.6757426,71.6584158 L38.6757426,45.3589109 C38.6757426,41.0860149 35.2134901,37.6237624 30.9405941,37.6237624 L15.470297,37.6237624 C11.197401,37.6237624 7.73514851,41.0860149 7.73514851,45.3589109 L7.73514851,71.6584158 L38.6757426,71.6584158 Z" id="Fill-12" fill="#FFCD78"></path>
                        <path d="M29.3935644,25.2475248 C29.3935644,28.6649134 26.6228342,31.4356436 23.2054455,31.4356436 C19.7880569,31.4356436 17.0173267,28.6649134 17.0173267,25.2475248 C17.0173267,21.8301361 19.7880569,19.0594059 23.2054455,19.0594059 C26.6228342,19.0594059 29.3935644,21.8301361 29.3935644,25.2475248" id="Fill-13" fill="#FFFFFF"></path>
                        <path d="M23.2054455,99.5049505 L23.2054455,76.299505" id="Stroke-14" stroke="#4D5152" stroke-width="2" stroke-linejoin="round"></path>
                        <path d="M29.3935644,25.2475248 C29.3935644,28.6649134 26.6228342,31.4356436 23.2054455,31.4356436 C19.7880569,31.4356436 17.0173267,28.6649134 17.0173267,25.2475248 C17.0173267,21.8301361 19.7880569,19.0594059 23.2054455,19.0594059 C26.6228342,19.0594059 29.3935644,21.8301361 29.3935644,25.2475248 L29.3935644,25.2475248 Z" id="Stroke-15" stroke="#4D5152" stroke-width="2" stroke-linejoin="round"></path>
                        <path d="M32.4876238,99.5049505 L32.4876238,71.6584158 L38.6757426,71.6584158 L38.6757426,45.3589109 C38.6757426,41.0860149 35.2134901,37.6237624 30.9405941,37.6237624 L15.470297,37.6237624 C11.197401,37.6237624 7.73514851,41.0860149 7.73514851,45.3589109 L7.73514851,71.6584158 L13.9232673,71.6584158 L13.9232673,99.5049505" id="Stroke-16" stroke="#4D5152" stroke-width="2"></path>
                        <path d="M85.0866337,99.5049505 L85.0866337,71.6584158 L91.2747525,71.6584158 L91.2747525,45.3589109 C91.2747525,41.0860149 87.8125,37.6237624 83.539604,37.6237624 L68.0693069,37.6237624 C63.7964109,37.6237624 60.3341584,41.0860149 60.3341584,45.3589109 L60.3341584,71.6584158 L66.5222772,71.6584158 L66.5222772,99.5049505" id="Fill-17" fill="#FFFFFF"></path>
                        <path d="M91.2747525,71.6584158 L91.2747525,45.3589109 C91.2747525,41.0860149 87.8125,37.6237624 83.539604,37.6237624 L68.0693069,37.6237624 C63.7964109,37.6237624 60.3341584,41.0860149 60.3341584,45.3589109 L60.3341584,71.6584158 L91.2747525,71.6584158 Z" id="Fill-18" fill="#FFCD78"></path>
                        <path d="M81.9925743,25.2475248 C81.9925743,28.6649134 79.2218441,31.4356436 75.8044554,31.4356436 C72.3870668,31.4356436 69.6163366,28.6649134 69.6163366,25.2475248 C69.6163366,21.8301361 72.3870668,19.0594059 75.8044554,19.0594059 C79.2218441,19.0594059 81.9925743,21.8301361 81.9925743,25.2475248" id="Fill-19" fill="#FFFFFF"></path>
                        <path d="M75.8044554,99.5049505 L75.8044554,76.299505" id="Stroke-20" stroke="#4D5152" stroke-width="2" stroke-linejoin="round"></path>
                        <path d="M81.9925743,25.2475248 C81.9925743,28.6649134 79.2218441,31.4356436 75.8044554,31.4356436 C72.3870668,31.4356436 69.6163366,28.6649134 69.6163366,25.2475248 C69.6163366,21.8301361 72.3870668,19.0594059 75.8044554,19.0594059 C79.2218441,19.0594059 81.9925743,21.8301361 81.9925743,25.2475248 L81.9925743,25.2475248 Z" id="Stroke-21" stroke="#4D5152" stroke-width="2" stroke-linejoin="round"></path>
                        <path d="M85.0866337,99.5049505 L85.0866337,71.6584158 L91.2747525,71.6584158 L91.2747525,45.3589109 C91.2747525,41.0860149 87.8125,37.6237624 83.539604,37.6237624 L68.0693069,37.6237624 C63.7964109,37.6237624 60.3341584,41.0860149 60.3341584,45.3589109 L60.3341584,71.6584158 L66.5222772,71.6584158 L66.5222772,99.5049505" id="Stroke-22" stroke="#4D5152" stroke-width="2"></path>
                        <path d="M49.5049505,31.4356436 L49.5049505,34.529703" id="Stroke-23" stroke="#4D5152" stroke-width="2" stroke-linejoin="round"></path>
                        <path d="M49.5049505,37.6237624 L49.5049505,40.7178218" id="Stroke-24" stroke="#4D5152" stroke-width="2" stroke-linejoin="round"></path>
                        <path d="M75.8044554,42.2648515 L75.8044554,45.3589109" id="Stroke-25" stroke="#4D5152" stroke-width="2" stroke-linejoin="round"></path>
                        <path d="M23.2054455,42.2648515 L23.2054455,45.3589109" id="Stroke-26" stroke="#4D5152" stroke-width="2" stroke-linejoin="round"></path>
                    </g>
                </g>
            </g>
        </g>
    </g>
</svg>