<?xml version="1.0" encoding="UTF-8" standalone="no"?>
<svg width="80px" height="80px" viewBox="0 0 80 80" version="1.1" xmlns="http://www.w3.org/2000/svg" xmlns:xlink="http://www.w3.org/1999/xlink" xmlns:sketch="http://www.bohemiancoding.com/sketch/ns">
    <!-- Generator: Sketch 3.4.3 (16044) - http://www.bohemiancoding.com/sketch -->
    <title>Group</title>
    <desc>Created with Sketch.</desc>
    <defs>
        <rect id="path-1" x="0" y="0" width="80" height="80" rx="100"></rect>
    </defs>
    <g id="Page-1" stroke="none" stroke-width="1" fill="none" fill-rule="evenodd" sketch:type="MSPage">
        <g id="Artboard-1" sketch:type="MSArtboardGroup" transform="translate(-930.000000, -2617.000000)">
            <g id="Group" sketch:type="MSLayerGroup" transform="translate(930.000000, 2617.000000)">
                <mask id="mask-2" sketch:name="Mask" fill="white">
                    <use xlink:href="#path-1"></use>
                </mask>
                <use id="Mask" fill-opacity="0.5" fill="#C5C8D2" sketch:type="MSShapeGroup" xlink:href="#path-1"></use>
                <g mask="url(#mask-2)" sketch:type="MSShapeGroup">
                    <g transform="translate(2.000000, 18.000000)">
                        <path d="M45.65625,83 L29.34375,83 L29.34375,51.734375 L45.65625,51.734375 L45.65625,83 Z" id="Fill-4" stroke="none" fill="#FFFFFF" fill-rule="evenodd"></path>
                        <path d="M44.296875,6.875 C44.296875,10.6295938 41.2545937,13.671875 37.5,13.671875 C33.7454063,13.671875 30.703125,10.6295938 30.703125,6.875 C30.703125,3.12040625 33.7454063,0.078125 37.5,0.078125 C41.2545937,0.078125 44.296875,3.12040625 44.296875,6.875" id="Fill-6" stroke="none" fill="#FFFFFF" fill-rule="evenodd"></path>
                        <path d="M37.5,83 L37.5,55.8125" id="Stroke-7" stroke="#4D5152" stroke-width="2" stroke-linejoin="round" fill="none"></path>
                        <path d="M45.65625,51.734375 L52.453125,51.734375 L52.453125,27.265625 C52.453125,22.7606563 48.8018437,19.109375 44.296875,19.109375 L30.703125,19.109375 C26.1995156,19.109375 22.546875,22.7606563 22.546875,27.265625 L22.546875,51.734375 L29.34375,51.734375" id="Fill-8" stroke="none" fill="#C5C8D2" fill-rule="evenodd"></path>
                        <path d="M44.296875,6.875 C44.296875,10.6295938 41.2545937,13.671875 37.5,13.671875 C33.7454063,13.671875 30.703125,10.6295938 30.703125,6.875 C30.703125,3.12040625 33.7454063,0.078125 37.5,0.078125 C41.2545937,0.078125 44.296875,3.12040625 44.296875,6.875 L44.296875,6.875 Z" id="Stroke-9" stroke="#4D5152" stroke-width="2" stroke-linejoin="round" fill="none"></path>
                        <path d="M45.65625,51.734375 L52.453125,51.734375 L52.453125,27.265625 C52.453125,22.7606563 48.8018437,19.109375 44.296875,19.109375 L30.703125,19.109375 C26.1995156,19.109375 22.546875,22.7606563 22.546875,27.265625 L22.546875,51.734375 L29.34375,51.734375" id="Stroke-10" stroke="#4D5152" stroke-width="2" stroke-linejoin="round" fill="none"></path>
                        <path d="M22.546875,83 L22.546875,58.53125 L27.984375,58.53125 L27.984375,35.421875 C27.984375,31.6672813 24.9420938,28.625 21.1875,28.625 L7.59375,28.625 C3.83915625,28.625 0.796875,31.6672813 0.796875,35.421875 L0.796875,58.53125 L6.234375,58.53125 L6.234375,83" id="Fill-11" stroke="none" fill="#FFFFFF" fill-rule="evenodd"></path>
                        <path d="M27.984375,58.53125 L27.984375,35.421875 C27.984375,31.6672813 24.9420938,28.625 21.1875,28.625 L7.59375,28.625 C3.83915625,28.625 0.796875,31.6672813 0.796875,35.421875 L0.796875,58.53125 L27.984375,58.53125 Z" id="Fill-12" stroke="none" fill="#E6E9F1" fill-rule="evenodd"></path>
                        <path d="M19.828125,17.75 C19.828125,20.7528594 17.3934844,23.1875 14.390625,23.1875 C11.3877656,23.1875 8.953125,20.7528594 8.953125,17.75 C8.953125,14.7471406 11.3877656,12.3125 14.390625,12.3125 C17.3934844,12.3125 19.828125,14.7471406 19.828125,17.75" id="Fill-13" stroke="none" fill="#FFFFFF" fill-rule="evenodd"></path>
                        <path d="M19.828125,17.75 C19.828125,20.7528594 17.3934844,23.1875 14.390625,23.1875 C11.3877656,23.1875 8.953125,20.7528594 8.953125,17.75 C8.953125,14.7471406 11.3877656,12.3125 14.390625,12.3125 C17.3934844,12.3125 19.828125,14.7471406 19.828125,17.75 L19.828125,17.75 Z" id="Stroke-15" stroke="#4D5152" stroke-width="2" stroke-linejoin="round" fill="none"></path>
                        <path d="M22.546875,83 L22.546875,58.53125 L27.984375,58.53125 L27.984375,35.421875 C27.984375,31.6672813 24.9420938,28.625 21.1875,28.625 L7.59375,28.625 C3.83915625,28.625 0.796875,31.6672813 0.796875,35.421875 L0.796875,58.53125 L6.234375,58.53125 L6.234375,83" id="Stroke-16" stroke="#4D5152" stroke-width="2" fill="none"></path>
                        <path d="M68.765625,83 L68.765625,58.53125 L74.203125,58.53125 L74.203125,35.421875 C74.203125,31.6672813 71.1608437,28.625 67.40625,28.625 L53.8125,28.625 C50.0579063,28.625 47.015625,31.6672813 47.015625,35.421875 L47.015625,58.53125 L52.453125,58.53125 L52.453125,83" id="Fill-17" stroke="none" fill="#FFFFFF" fill-rule="evenodd"></path>
                        <path d="M74.203125,58.53125 L74.203125,35.421875 C74.203125,31.6672813 71.1608437,28.625 67.40625,28.625 L53.8125,28.625 C50.0579063,28.625 47.015625,31.6672813 47.015625,35.421875 L47.015625,58.53125 L74.203125,58.53125 Z" id="Fill-18" stroke="none" fill="#E6E9F1" fill-rule="evenodd"></path>
                        <path d="M66.046875,17.75 C66.046875,20.7528594 63.6122344,23.1875 60.609375,23.1875 C57.6065156,23.1875 55.171875,20.7528594 55.171875,17.75 C55.171875,14.7471406 57.6065156,12.3125 60.609375,12.3125 C63.6122344,12.3125 66.046875,14.7471406 66.046875,17.75" id="Fill-19" stroke="none" fill="#FFFFFF" fill-rule="evenodd"></path>
                        <path d="M66.046875,17.75 C66.046875,20.7528594 63.6122344,23.1875 60.609375,23.1875 C57.6065156,23.1875 55.171875,20.7528594 55.171875,17.75 C55.171875,14.7471406 57.6065156,12.3125 60.609375,12.3125 C63.6122344,12.3125 66.046875,14.7471406 66.046875,17.75 L66.046875,17.75 Z" id="Stroke-21" stroke="#4D5152" stroke-width="2" stroke-linejoin="round" fill="none"></path>
                        <path d="M68.765625,83 L68.765625,58.53125 L74.203125,58.53125 L74.203125,35.421875 C74.203125,31.6672813 71.1608437,28.625 67.40625,28.625 L53.8125,28.625 C50.0579063,28.625 47.015625,31.6672813 47.015625,35.421875 L47.015625,58.53125 L52.453125,58.53125 L52.453125,83" id="Stroke-22" stroke="#4D5152" stroke-width="2" fill="none"></path>
                        <path d="M37.5,23.1875 L37.5,25.90625" id="Stroke-23" stroke="#4D5152" stroke-width="2" stroke-linejoin="round" fill="none"></path>
                        <path d="M37.5,28.625 L37.5,31.34375" id="Stroke-24" stroke="#4D5152" stroke-width="2" stroke-linejoin="round" fill="none"></path>
                        <path d="M60.609375,32.703125 L60.609375,35.421875" id="Stroke-25" stroke="#4D5152" stroke-width="2" stroke-linejoin="round" fill="none"></path>
                        <path d="M14.390625,32.703125 L14.390625,35.421875" id="Stroke-26" stroke="#4D5152" stroke-width="2" stroke-linejoin="round" fill="none"></path>
                    </g>
                </g>
            </g>
        </g>
    </g>
</svg>