<?xml version="1.0" encoding="UTF-8" standalone="no"?>
<svg width="107px" height="34px" viewBox="0 0 107 34" version="1.1" xmlns="http://www.w3.org/2000/svg" xmlns:xlink="http://www.w3.org/1999/xlink" xmlns:sketch="http://www.bohemiancoding.com/sketch/ns">
    <!-- Generator: Sketch 3.3 (11970) - http://www.bohemiancoding.com/sketch -->
    <title>Imported Layers</title>
    <desc>Created with Sketch.</desc>
    <defs></defs>
    <g id="Page-1" stroke="none" stroke-width="1" fill="none" fill-rule="evenodd" sketch:type="MSPage">
        <g id="项目路演" sketch:type="MSArtboardGroup" transform="translate(-322.000000, -38.000000)" fill="#FFFFFF">
            <g id="Imported-Layers" sketch:type="MSLayerGroup" transform="translate(322.000000, 38.000000)">
                <path d="M0.0453527919,3.28923158 L4.64580964,3.28923158 L4.64580964,32.1351 L0.0453527919,32.1351 L0.0453527919,3.28923158 Z" id="Fill-1" sketch:type="MSShapeGroup"></path>
                <path d="M18.5832386,7.09114737 L10.0188934,7.09114737 L10.0188934,3.28923158 L31.7882335,3.28923158 L31.7882335,7.09114737 L23.1828807,7.09114737 L23.1828807,32.1351 L18.5832386,32.1351 L18.5832386,7.09114737" id="Fill-2" sketch:type="MSShapeGroup"></path>
                <path d="M45.5928629,11.4717789 C46.5832919,12.8493158 49.3707234,16.9462263 49.9214746,17.9613947 L47.9034112,20.3181316 C47.4631904,19.1580158 46.5096954,17.2726263 45.5928629,15.5686895 L45.5928629,33.4068789 L42.4010584,33.4068789 L42.4010584,17.8891895 C41.4106294,21.2970632 40.126901,24.4515474 38.8067817,26.5543579 C38.4762766,25.5754263 37.7058223,24.0526737 37.1556142,23.1824526 C39.209797,20.2818947 41.154264,14.7709421 42.1077589,10.1302105 L37.8891345,10.1302105 L37.8891345,7.01196316 L42.4010584,7.01196316 L42.4010584,0.195678947 L45.5928629,0.195678947 L45.5928629,7.01196316 L49.0407614,7.01196316 L49.0407614,10.1302105 L45.5928629,10.1302105 L45.5928629,11.4717789 L45.5928629,11.4717789 Z M61.9532716,8.42627368 L61.9532716,13.1757158 L69.3631574,13.1757158 L69.3631574,16.3302 L51.0218909,16.3302 L51.0218909,13.1757158 L58.4317766,13.1757158 L58.4317766,8.42627368 L49.9942563,8.42627368 L49.9942563,5.23528421 L58.4317766,5.23528421 L58.4317766,0.159442105 L61.9532716,0.159442105 L61.9532716,5.23528421 L70.6102234,5.23528421 L70.6102234,8.42627368 L61.9532716,8.42627368 L61.9532716,8.42627368 Z M51.6454239,19.7018368 L68.6293655,19.7018368 L68.6293655,33.4793526 L51.6454239,33.4793526 L51.6454239,19.7018368 Z M54.9836066,30.0459789 L65.1442614,30.0459789 L65.1442614,22.7473421 L54.9836066,22.7473421 L54.9836066,30.0459789 Z" id="Fill-3" sketch:type="MSShapeGroup"></path>
                <path d="M106.809627,18.1680789 L92.8393376,18.1680789 L92.8393376,29.2374947 C92.8393376,31.3040684 92.3255203,32.3192368 90.7848832,32.8268211 C89.2442462,33.3709105 87.7345685,33.4431158 84.3227893,33.4431158 C84.1030863,32.4641842 83.4423477,30.9051947 82.8557487,29.9625 C85.6434518,30.0714789 87.4830914,30.0714789 88.2902081,30.0349737 C89.060934,29.9987368 89.2809086,29.8175526 89.2809086,29.1647526 L89.2809086,18.1680789 L75.0906447,18.1680789 L75.0906447,14.7964421 L89.2809086,14.7964421 L89.2809086,10.8552158 C91.9950152,9.58638947 95.1868198,7.62852632 97.5709645,5.74286842 L78.1295533,5.74286842 L78.1295533,2.44370526 L101.312434,2.44370526 L102.082888,2.26225263 L104.650617,4.22011579 C101.53268,7.19341579 97.0210279,10.4563421 92.8393376,12.6318947 L92.8393376,14.7964421 L106.809627,14.7964421 L106.809627,18.1680789" id="Fill-4" sketch:type="MSShapeGroup"></path>
            </g>
        </g>
    </g>
</svg>