<?xml version="1.0" encoding="UTF-8" standalone="no"?>
<svg width="351px" height="81px" viewBox="0 0 351 81" version="1.1" xmlns="http://www.w3.org/2000/svg" xmlns:xlink="http://www.w3.org/1999/xlink" xmlns:sketch="http://www.bohemiancoding.com/sketch/ns">
    <!-- Generator: Sketch 3.3 (11970) - http://www.bohemiancoding.com/sketch -->
    <title>Imported Layers</title>
    <desc>Created with Sketch.</desc>
    <defs>
        <linearGradient x1="29.210762%" y1="-4.14180715%" x2="126.159374%" y2="298.322696%" id="linearGradient-1">
            <stop stop-color="#F8EF77" offset="0%"></stop>
            <stop stop-color="#F76B1C" offset="100%"></stop>
        </linearGradient>
    </defs>
    <g id="Page-1" stroke="none" stroke-width="1" fill="none" fill-rule="evenodd" sketch:type="MSPage">
        <g id="项目路演" sketch:type="MSArtboardGroup" transform="translate(-544.000000, -174.000000)" fill="url(#linearGradient-1)">
            <g id="Imported-Layers" sketch:type="MSLayerGroup" transform="translate(544.750000, 174.138659)">
                <path d="M0.765565789,2.96045767 L30.9517494,2.96045767 L30.9517494,9.42268986 L24.9982805,9.42268986 L24.9982805,69.2604422 L30.9517494,68.3372661 L30.9517494,74.7990787 L0.0109007177,79.6671538 L0.0109007177,73.2045019 L6.63518301,72.1138954 L6.63518301,9.42268986 L0.765565789,9.42268986 L0.765565789,2.96045767 L0.765565789,2.96045767 Z M34.0542614,1.19803071 L79.6687339,1.19803071 L79.6687339,7.5763378 L68.0972028,7.5763378 L66.0009109,16.7237534 L78.7463654,16.7237534 L78.7463654,59.8608317 L67.7622153,59.8608317 L78.7463654,79.8345843 L61.4733397,79.8345843 L56.5260909,70.0996931 L50.9080287,79.8345843 L33.383448,79.8345843 L44.8711274,59.8608317 L34.8089264,59.8608317 L34.8089264,16.7237534 L45.8769282,16.7237534 L47.9732201,7.5763378 L34.0542614,7.5763378 L34.0542614,1.19803071 L34.0542614,1.19803071 Z M64.156174,29.1446672 L64.156174,53.1468242 L66.4201693,57.3430789 L66.4201693,22.8502852 L46.715445,22.8502852 L46.715445,56.6716782 L48.7278852,53.1468242 L48.7278852,29.1446672 L64.156174,29.1446672 Z M94.9309964,1.61765617 L164.945887,1.61765617 L164.945887,69.2604422 C164.945887,74.5473034 160.669452,78.8274832 155.387215,78.8274832 L94.9309964,78.8274832 L94.9309964,1.61765617 Z M114.803424,25.5358882 L145.073459,25.5358882 L145.073459,7.91161855 L114.803424,7.91161855 L114.803424,25.5358882 Z M114.803424,48.5309441 L145.073459,48.5309441 L145.073459,31.9137756 L114.803424,31.9137756 L114.803424,48.5309441 Z M145.073459,54.9096708 L114.803424,54.9096708 L114.803424,72.4491761 L142.641761,72.4491761 C143.983388,72.4491761 145.073459,71.3585695 145.073459,70.0153484 L145.073459,54.9096708 Z M180.543556,73.3727718 L181.969035,73.3727718 L181.969035,40.6419853 L193.121307,40.6419853 L193.121307,73.3727718 L195.217599,73.3727718 L195.217599,34.8515735 L181.21437,34.8515735 L181.21437,1.53373108 L213.664548,1.53373108 L213.664548,26.8786897 C213.664548,30.5709741 211.484405,33.6766222 208.549596,34.5997982 L208.549596,48.7827194 L214.335362,48.7827194 L214.335362,55.1610265 L208.549596,55.1610265 L208.549596,73.3727718 L214.335362,73.3727718 L214.335362,79.6671538 L180.543556,79.6671538 L180.543556,73.3727718 Z M200.332132,7.91161855 L194.462515,7.91161855 L194.462515,28.4732664 L198.319692,28.4732664 C199.493615,28.4732664 200.332132,27.3822402 200.332132,26.1233638 L200.332132,7.91161855 L200.332132,7.91161855 Z M238.73578,0.358779774 L236.304081,6.65274215 L258.524356,6.65274215 L258.524356,18.1508996 L246.70127,31.4102251 L259.949834,47.523843 L242.844512,47.523843 L237.813411,41.4812363 L232.446904,47.523843 L215.508866,47.523843 L229.512096,31.4945698 L223.139368,23.6895361 L215.425434,23.6895361 L223.642478,0.358779774 L238.73578,0.358779774 L238.73578,0.358779774 Z M217.27017,49.9580903 L259.362873,49.9580903 L259.362873,70.2671237 C259.362873,75.5548242 255.337992,79.8345843 250.22304,79.8345843 L217.27017,79.8345843 L217.27017,49.9580903 L217.27017,49.9580903 Z M233.872383,12.9471242 L233.201569,14.8774013 L238.484225,21.3396335 L245.779321,12.9471242 L233.872383,12.9471242 L233.872383,12.9471242 Z M243.515325,56.3359778 L233.201569,56.3359778 L233.201569,73.4566968 L241.25133,73.4566968 C242.508686,73.4566968 243.515325,72.4491761 243.515325,71.1063746 L243.515325,56.3359778 Z M287.454022,0.610555054 L291.227347,17.9826298 L274.960542,17.9826298 L271.187217,0.610555054 L287.454022,0.610555054 Z M287.454022,21.4239782 L291.395051,38.7960529 L275.128245,38.7960529 L271.187217,21.4239782 L287.454022,21.4239782 L287.454022,21.4239782 Z M291.395051,42.7401127 L287.454022,79.9185094 L271.187217,79.9185094 L275.128245,42.7401127 L291.395051,42.7401127 L291.395051,42.7401127 Z M318.562574,65.7351686 L312.944512,80.0024345 L293.994453,80.0024345 L299.696367,65.7351686 L318.562574,65.7351686 L318.562574,65.7351686 Z M312.525254,4.38718426 L312.525254,0.358779774 L331.39188,0.358779774 L331.39188,4.38718426 L349.671126,4.38718426 L349.671126,16.4723977 L331.810719,16.4723977 L331.810719,10.7650717 L312.105995,10.7650717 L312.105995,16.4723977 L294.162156,16.4723977 L294.162156,4.38718426 L312.525254,4.38718426 L312.525254,4.38718426 Z M295.419931,19.6611316 L348.497203,19.6611316 L348.497203,26.0394387 L329.798699,26.0394387 L329.798699,29.8160679 L348.916461,29.8160679 L348.916461,55.3288767 C348.916461,59.6929815 345.562394,63.3017605 341.36981,63.3017605 L294.916821,63.3017605 L294.916821,29.8160679 L314.118435,29.8160679 L314.118435,26.0394387 L295.419931,26.0394387 L295.419931,19.6611316 L295.419931,19.6611316 Z M310.177407,43.328008 L314.118435,43.328008 L314.118435,36.194375 L310.177407,36.194375 L310.177407,43.328008 Z M310.177407,56.9234535 L314.118435,56.9234535 L314.118435,49.7058954 L310.177407,49.7058954 L310.177407,56.9234535 Z M344.472322,65.7351686 L350.090385,80.0024345 L331.224177,80.0024345 L325.689967,65.7351686 L344.472322,65.7351686 L344.472322,65.7351686 Z M329.798699,43.328008 L333.739727,43.328008 L333.739727,36.194375 L329.798699,36.194375 L329.798699,43.328008 Z M331.39188,56.9234535 C332.649236,56.9234535 333.739727,55.8324272 333.739727,54.4896257 L333.739727,49.7058954 L329.798699,49.7058954 L329.798699,56.9234535 L331.39188,56.9234535 L331.39188,56.9234535 Z" id="Fill-1" sketch:type="MSShapeGroup"></path>
            </g>
        </g>
    </g>
</svg>