<?xml version="1.0" encoding="UTF-8" standalone="no"?>
<svg width="54px" height="74px" viewBox="0 0 54 74" version="1.1" xmlns="http://www.w3.org/2000/svg" xmlns:xlink="http://www.w3.org/1999/xlink" xmlns:sketch="http://www.bohemiancoding.com/sketch/ns">
    <!-- Generator: Sketch 3.3 (11970) - http://www.bohemiancoding.com/sketch -->
    <title>Imported Layers</title>
    <desc>Created with Sketch.</desc>
    <defs></defs>
    <g id="Page-1" stroke="none" stroke-width="1" fill="none" fill-rule="evenodd" sketch:type="MSPage">
        <g id="项目路演" sketch:type="MSArtboardGroup" transform="translate(-1031.000000, -858.000000)" fill="#455A64">
            <g id="Imported-Layers" sketch:type="MSLayerGroup" transform="translate(1031.500000, 858.000000)">
                <path d="M22.5225,44.1986842 L18.35625,38.9664474 C15.4432143,35.3072368 13.8364286,30.7085526 13.8364286,26.0210526 L13.8364286,12.2190789 L15.8007143,12.2190789 L15.8007143,26.0210526 C15.8007143,30.2625 17.2523214,34.4210526 19.8903571,37.7328947 L24.0566071,42.9671053 L22.5225,44.1986842" id="Fill-1" sketch:type="MSShapeGroup"></path>
                <path d="M30.6860714,44.1986842 L29.1519643,42.9671053 L33.3182143,37.7328947 C35.95625,34.4210526 37.4078571,30.2585526 37.4078571,26.0210526 L37.4078571,14.1848684 C29.5094643,14.0269737 22.0373214,12.0157895 18.3091071,10.1427632 L17.4291071,9.70065789 L18.3091071,7.93618421 L19.1871429,8.37631579 C22.8721429,10.2276316 30.4523214,12.2190789 38.39,12.2190789 L39.3721429,12.2190789 L39.3721429,26.0210526 C39.3721429,30.7065789 37.7673214,35.3032895 34.8523214,38.9664474 L30.6860714,44.1986842" id="Fill-2" sketch:type="MSShapeGroup"></path>
                <path d="M21.6935714,41.8243421 L31.515,41.8243421 L31.515,49.7190789 L21.6935714,49.7190789 L21.6935714,41.8243421 Z M23.6578571,47.7453947 L29.5507143,47.7453947 L29.5507143,43.7980263 L23.6578571,43.7980263 L23.6578571,47.7453947 Z" id="Fill-3" sketch:type="MSShapeGroup"></path>
                <path d="M2.05071429,65.5085526 L0.0864285714,65.5085526 L0.0864285714,62.5559211 C0.0864285714,51.1736842 9.30482143,41.8756579 20.6308929,41.8322368 L23.6539286,41.8223684 L23.6617857,43.7960526 L20.63875,43.8059211 C10.3891071,43.8453947 2.05071429,52.2572368 2.05071429,62.5559211 L2.05071429,65.5085526" id="Fill-4" sketch:type="MSShapeGroup"></path>
                <path d="M53.1221429,65.5085526 L51.1578571,65.5085526 L51.1578571,62.5559211 C51.1578571,52.2572368 42.8194643,43.8453947 32.5678571,43.8059211 L29.5467857,43.7960526 L29.5546429,41.8223684 L32.5757143,41.8322368 C43.9057143,41.8756579 53.1221429,51.1736842 53.1221429,62.5559211 L53.1221429,65.5085526" id="Fill-5" sketch:type="MSShapeGroup"></path>
                <path d="M26.6042857,73.65 L17.6530357,66.9039474 L21.9292857,47.5559211 L23.8483929,47.9842105 L19.8432143,66.0888158 L26.6042857,71.1828947 L33.3673214,66.0888158 L29.3621429,47.9842105 L31.2792857,47.5559211 L35.5575,66.9039474 L26.6042857,73.65" id="Fill-6" sketch:type="MSShapeGroup"></path>
                <path d="M42.3185714,28.0085526 L41.3364286,28.0085526 L41.3364286,26.0348684 L42.3185714,26.0348684 C43.9430357,26.0348684 45.265,24.7085526 45.265,23.0743421 C45.265,21.4421053 43.9430357,20.1138158 42.3185714,20.1138158 L41.3364286,20.1138158 L41.3364286,12.1539474 C41.3364286,8.175 38.7121429,4.66578947 34.9544643,3.62171053 C31.955,2.78486842 29.1441071,2.35855263 26.6023214,2.35065789 C24.0625,2.35855263 21.2535714,2.78486842 18.2541071,3.62171053 C14.4964286,4.66578947 11.8721429,8.175 11.8721429,12.1539474 L11.8721429,20.1138158 L10.89,20.1138158 C9.26553571,20.1138158 7.94357143,21.4421053 7.94357143,23.0743421 C7.94357143,24.7085526 9.26553571,26.0348684 10.89,26.0348684 L11.8721429,26.0348684 L11.8721429,28.0085526 L10.89,28.0085526 C8.18125,28.0085526 5.97928571,25.7960526 5.97928571,23.0743421 C5.97928571,20.6921053 7.66857143,18.6986842 9.90785714,18.2407895 L9.90785714,12.1539474 C9.90785714,7.29078947 13.1253571,3 17.7296429,1.71907895 C20.8980357,0.834868421 23.8817857,0.384868421 26.6023214,0.376973684 C29.3248214,0.384868421 32.3085714,0.834868421 35.4808929,1.71907895 C40.0851786,3 43.3007143,7.29078947 43.3007143,12.1539474 L43.3007143,18.2407895 C45.54,18.6986842 47.2292857,20.6921053 47.2292857,23.0743421 C47.2292857,25.7960526 45.0273214,28.0085526 42.3185714,28.0085526" id="Fill-7" sketch:type="MSShapeGroup"></path>
                <path d="M18.7471429,22.0875 L24.64,22.0875 L24.64,24.0611842 L18.7471429,24.0611842 L18.7471429,22.0875 Z" id="Fill-8" sketch:type="MSShapeGroup"></path>
                <path d="M28.5685714,22.0875 L34.4614286,22.0875 L34.4614286,24.0611842 L28.5685714,24.0611842 L28.5685714,22.0875 Z" id="Fill-9" sketch:type="MSShapeGroup"></path>
            </g>
        </g>
    </g>
</svg>