<?xml version="1.0" encoding="UTF-8" standalone="no"?>
<svg width="41px" height="70px" viewBox="0 0 41 70" version="1.1" xmlns="http://www.w3.org/2000/svg" xmlns:xlink="http://www.w3.org/1999/xlink" xmlns:sketch="http://www.bohemiancoding.com/sketch/ns">
    <!-- Generator: Sketch 3.3 (11970) - http://www.bohemiancoding.com/sketch -->
    <title>Imported Layers</title>
    <desc>Created with Sketch.</desc>
    <defs></defs>
    <g id="Page-1" stroke="none" stroke-width="1" fill="none" fill-rule="evenodd" sketch:type="MSPage">
        <g id="项目路演" sketch:type="MSArtboardGroup" transform="translate(-711.000000, -863.000000)" fill="#455A64">
            <g id="Imported-Layers" sketch:type="MSLayerGroup" transform="translate(710.500000, 863.000000)">
                <path d="M20.8971,27.5459118 C13.9881,27.5459118 7.7805,22.9476176 5.8023,16.3592353 L5.3991,15.0165 L36.3972,15.0165 L35.9919,16.3592353 C34.0158,22.9476176 27.8082,27.5459118 20.8971,27.5459118 L20.8971,27.5459118 Z M8.2992,17.1047353 C10.3992,22.0872647 15.3909,25.4576765 20.8971,25.4576765 C26.4054,25.4576765 31.395,22.0872647 33.4971,17.1047353 L8.2992,17.1047353 L8.2992,17.1047353 Z" id="Fill-1" sketch:type="MSShapeGroup"></path>
                <path d="M36.3972,69.3106176 L5.3991,69.3106176 L5.8023,67.9678824 C7.7805,61.3815882 13.9881,56.7812059 20.8971,56.7812059 C27.8082,56.7812059 34.0158,61.3815882 35.9919,67.9678824 L36.3972,69.3106176 L36.3972,69.3106176 Z M8.2992,67.2223824 L33.4971,67.2223824 C31.395,62.2419412 26.4054,58.8694412 20.8971,58.8694412 C15.3909,58.8694412 10.3992,62.2419412 8.2992,67.2223824 L8.2992,67.2223824 Z" id="Fill-2" sketch:type="MSShapeGroup"></path>
                <path d="M40.8471,69.3106176 L0.9471,69.3106176 L0.9471,57.8253235 C0.9471,51.0448235 4.3869,44.8051765 10.1451,41.1361471 C12.2766,39.7787941 13.5471,37.5798824 13.5471,35.2577647 L13.5471,34.4537941 C13.5471,32.1295882 12.2766,29.9327647 10.1451,28.5733235 C4.3869,24.9042941 0.9471,18.6646471 0.9471,11.8841471 L0.9471,0.398852941 L40.8471,0.398852941 L40.8471,11.8841471 C40.8471,18.6646471 37.4094,24.9042941 31.6491,28.5733235 C29.5197,29.9327647 28.2471,32.1295882 28.2471,34.4537941 L28.2471,35.2577647 C28.2471,37.5819706 29.5197,39.7787941 31.6491,41.1361471 C37.4094,44.8051765 40.8471,51.0448235 40.8471,57.8253235 L40.8471,69.3106176 L40.8471,69.3106176 Z M3.0471,67.2223824 L38.7471,67.2223824 L38.7471,57.8253235 C38.7471,51.7610882 35.6706,46.1792353 30.5172,42.8944412 C27.7809,41.1507647 26.1471,38.2961471 26.1471,35.2577647 L26.1471,34.4537941 C26.1471,31.4133235 27.7809,28.5587059 30.5172,26.8150294 C35.6706,23.5323235 38.7471,17.9504706 38.7471,11.8841471 L38.7471,2.48708824 L3.0471,2.48708824 L3.0471,11.8841471 C3.0471,17.9504706 6.1236,23.5323235 11.277,26.8150294 C14.0154,28.5587059 15.6471,31.4154118 15.6471,34.4537941 L15.6471,35.2577647 C15.6471,38.2961471 14.0154,41.1507647 11.277,42.8944412 C6.1236,46.1771471 3.0471,51.7610882 3.0471,57.8253235 L3.0471,67.2223824 L3.0471,67.2223824 Z" id="Fill-3" sketch:type="MSShapeGroup"></path>
                <path d="M19.8471,29.6341471 L21.9471,29.6341471 L21.9471,48.4282647 L19.8471,48.4282647 L19.8471,29.6341471 Z" id="Fill-4" sketch:type="MSShapeGroup"></path>
                <path d="M19.8471,50.5165 L21.9471,50.5165 L21.9471,54.6929706 L19.8471,54.6929706 L19.8471,50.5165 Z" id="Fill-5" sketch:type="MSShapeGroup"></path>
            </g>
        </g>
    </g>
</svg>