<?xml version="1.0" encoding="UTF-8" standalone="no"?>
<svg width="68px" height="76px" viewBox="0 0 68 76" version="1.1" xmlns="http://www.w3.org/2000/svg" xmlns:xlink="http://www.w3.org/1999/xlink" xmlns:sketch="http://www.bohemiancoding.com/sketch/ns">
    <!-- Generator: Sketch 3.3 (11970) - http://www.bohemiancoding.com/sketch -->
    <title>Imported Layers</title>
    <desc>Created with Sketch.</desc>
    <defs></defs>
    <g id="Page-1" stroke="none" stroke-width="1" fill="none" fill-rule="evenodd" sketch:type="MSPage">
        <g id="项目路演" sketch:type="MSArtboardGroup" transform="translate(-345.000000, -858.000000)" fill="#455A64">
            <g id="Imported-Layers" sketch:type="MSLayerGroup" transform="translate(345.500000, 857.000000)">
                <path d="M16.1075882,76.0128205 L0.342882353,76.0128205 L0.342882353,74.0384615 L14.137,74.0384615 L14.137,32.5769231 L0.342882353,32.5769231 L0.342882353,30.6025641 L16.1075882,30.6025641 L16.1075882,76.0128205" id="Fill-1" sketch:type="MSShapeGroup"></path>
                <path d="M57.0505,72.0641026 L14.137,72.0641026 L14.137,30.6025641 L18.8683824,30.6025641 C24.2126176,28.3952308 26.6423529,26.3399231 30.0672353,21.1730256 L30.3470588,20.8926667 C37.0411471,16.505641 40.7300882,11.1077436 45.0042941,4.85889744 L46.2674412,3.01682051 C47.4281176,1.33269231 49.6647353,0.576512821 51.6037941,1.22805128 C53.9606176,2.01384615 55.2887941,4.37517949 54.7547647,6.7424359 L49.9386471,30.6025641 L61.7799118,30.6025641 C63.2164706,30.6025641 64.5781471,31.2284359 65.5141765,32.3182821 C66.4502059,33.4081282 66.866,34.8494103 66.6531765,36.2709487 L61.9237647,67.8606923 C61.5572353,70.2950769 59.5097941,72.0641026 57.0505,72.0641026 L57.0505,72.0641026 Z M16.1075882,70.0897436 L57.0505,70.0897436 C58.5264706,70.0897436 59.7561176,69.0295128 59.9748529,67.5684872 L64.7042647,35.9787436 C64.8323529,35.1238462 64.5840588,34.2610513 64.0204706,33.6075385 C63.4588529,32.9520513 62.6430294,32.5769231 61.7799118,32.5769231 L47.5286176,32.5769231 L52.8275294,6.32782051 C53.1428235,4.93392308 52.3723235,3.56371795 51.0421765,3.12146154 C49.6706471,2.6614359 48.5631765,3.16292308 47.8892353,4.13825641 L46.6280588,5.97638462 C42.4543529,12.0811026 38.5112059,17.8501795 31.5964118,22.4326667 C27.9725,27.8661026 25.2156471,30.1405641 19.4359118,32.5038718 L19.0634706,32.5769231 L16.1075882,32.5769231 L16.1075882,70.0897436 L16.1075882,70.0897436 Z" id="Fill-2" sketch:type="MSShapeGroup"></path>
                <path d="M56.5046471,40.474359 L64.387,40.474359 L64.387,42.4487179 L56.5046471,42.4487179 L56.5046471,40.474359 Z" id="Fill-3" sketch:type="MSShapeGroup"></path>
                <path d="M55.3163824,50.3461538 L63.4017059,50.3461538 L63.4017059,52.3205128 L55.3163824,52.3205128 L55.3163824,50.3461538 Z" id="Fill-4" sketch:type="MSShapeGroup"></path>
                <path d="M53.5428529,60.2179487 L61.6281765,60.2179487 L61.6281765,62.1923077 L53.5428529,62.1923077 L53.5428529,60.2179487 Z" id="Fill-5" sketch:type="MSShapeGroup"></path>
                <path d="M1.32817647,68.1153846 L7.23994118,68.1153846 L7.23994118,70.0897436 L1.32817647,70.0897436 L1.32817647,68.1153846 Z" id="Fill-6" sketch:type="MSShapeGroup"></path>
            </g>
        </g>
    </g>
</svg>