<?xml version="1.0" encoding="UTF-8" standalone="no"?>
<svg width="97px" height="96px" viewBox="0 0 97 96" version="1.1" xmlns="http://www.w3.org/2000/svg" xmlns:xlink="http://www.w3.org/1999/xlink" xmlns:sketch="http://www.bohemiancoding.com/sketch/ns">
    <!-- Generator: Sketch 3.3.3 (12072) - http://www.bohemiancoding.com/sketch -->
    <title>thin-0398_presentation_powerpoint_keynote_meeting</title>
    <desc>Created with Sketch.</desc>
    <defs></defs>
    <g id="Page-1" stroke="none" stroke-width="1" fill="none" fill-rule="evenodd" sketch:type="MSPage">
        <g id="猎桔融资-单页" sketch:type="MSArtboardGroup" transform="translate(-385.000000, -2139.000000)" stroke-width="4">
            <g id="Group" sketch:type="MSLayerGroup" transform="translate(302.000000, 2042.000000)">
                <g id="thin-0398_presentation_powerpoint_keynote_meeting" transform="translate(85.000000, 97.000000)" sketch:type="MSShapeGroup">
                    <g id="Group">
                        <path d="M80.9584,93.7036 L80.9596,60.5236" id="Shape" stroke-opacity="0.5" stroke="#132A4F"></path>
                        <path d="M86.3704,11.8796 C86.3704,14.9256 83.948,19.1792 80.9596,19.1792 C77.9712,19.1792 75.5488,14.9256 75.5488,11.8796 C75.5488,8.8336 77.9712,6.364 80.9596,6.364 C83.948,6.364 86.3704,8.8336 86.3704,11.8796 L86.3704,11.8796 Z" id="Shape" stroke-opacity="0.5" stroke="#132A4F"></path>
                        <path d="M87.9604,93.7036 L90.1008,54.4696 C90.132,53.6768 92.6292,54.7088 92.6568,53.9572 C93.674,26.208 91.4104,24.4432 91.1548,24.2252 C90.8536,24.1392 88.384,24.0712 87.6448,24.024 C86.6456,23.96 85.784,24.582 85.3252,25.4892 C83.698,28.706 78.22,28.706 76.5932,25.4892 C76.1348,24.582 75.2732,23.96 74.274,24.024 C73.6476,24.064 56.496,26.8848 51.0968,27.7964 C48.8672,28.1728 49,31.4852 51.242,31.6944 L71.818,33.6148 L71.818,54.47 L73.9564,93.704" id="Shape" stroke-opacity="0.5" stroke="#132A4F"></path>
                        <path d="M36.9576,4 L36.9576,0.0744" id="Shape" stroke-opacity="0.5" stroke="#132A4F"></path>
                        <path d="M60.9576,4 L60.9576,0.0744" id="Shape" stroke-opacity="0.5" stroke="#132A4F"></path>
                        <path d="M62.9576,74 L0.9576,74 L0.9576,6 L66.9576,6" id="Shape" stroke-opacity="0.5" stroke="#132A4F"></path>
                        <path d="M48.9576,80.5036 L48.9576,92" id="Shape" stroke-opacity="0.5" stroke="#132A4F"></path>
                        <path d="M34.9576,94 L58.9576,94" id="Shape" stroke-opacity="0.5" stroke="#132A4F"></path>
                        <rect id="Rectangle-path" stroke="#FFFFFF" opacity="0.8" x="13.0096" y="45.9988" width="16" height="16"></rect>
                        <rect id="Rectangle-path" stroke="#FFFFFF" opacity="0.8" x="13.0096" y="17.9972" width="16" height="16"></rect>
                        <path d="M37.3124,21.9988 L56.4276,21.9988" id="Shape" stroke="#FFFFFF" opacity="0.8"></path>
                        <path d="M37.3124,49.9992 L56.4276,49.9992" id="Shape" stroke="#FFFFFF" opacity="0.8"></path>
                        <path d="M37.3124,29.9984 L41.0172,29.9984" id="Shape" stroke="#FFFFFF" opacity="0.8"></path>
                        <path d="M37.3124,57.9988 L41.0172,57.9988" id="Shape" stroke="#FFFFFF" opacity="0.8"></path>
                    </g>
                </g>
            </g>
        </g>
    </g>
</svg>