<?xml version="1.0" encoding="UTF-8" standalone="no"?>
<svg width="88px" height="96px" viewBox="0 0 88 96" version="1.1" xmlns="http://www.w3.org/2000/svg" xmlns:xlink="http://www.w3.org/1999/xlink" xmlns:sketch="http://www.bohemiancoding.com/sketch/ns">
    <!-- Generator: Sketch 3.3.3 (12072) - http://www.bohemiancoding.com/sketch -->
    <title>thin-0399_meeting_presentation_speech_speaker_keynote</title>
    <desc>Created with Sketch.</desc>
    <defs></defs>
    <g id="Page-1" stroke="none" stroke-width="1" fill="none" fill-rule="evenodd" sketch:type="MSPage">
        <g id="猎桔融资-单页" sketch:type="MSArtboardGroup" transform="translate(-966.000000, -2141.000000)" stroke-width="4">
            <g id="Group" sketch:type="MSLayerGroup" transform="translate(302.000000, 2042.000000)">
                <g id="thin-0399_meeting_presentation_speech_speaker_keynote" transform="translate(666.000000, 101.000000)" sketch:type="MSShapeGroup">
                    <g id="Group">
                        <path d="M83.29,53.2744 L0.5916,53.2744 C0.1848,53.2744 -0.0944,52.7171477 0.0552,52.2884921 L11.8084,16.3946427 C11.8956,16.1449042 12.1084,16 12.3452,16 L71.5364,16 C71.7732,16 71.986,16.0987772 72.0728,16.3480497 L83.8264,52.3211072 C83.9756,52.7497628 83.6968,53.2744 83.29,53.2744 L83.29,53.2744 Z" id="Shape" stroke-opacity="0.5" stroke="#132A4F"></path>
                        <path d="M41.9408,55 L41.9408,85.2744" id="Shape" stroke-opacity="0.5" stroke="#132A4F"></path>
                        <ellipse id="Oval" stroke-opacity="0.5" stroke="#132A4F" cx="41.9408" cy="85.5112" rx="15.598" ry="5.926"></ellipse>
                        <path d="M20.0264,24.2204 L20.0264,12.57 C20.0264,11.0404 20.634,9.5736 21.7156,8.492 L27.868,2.3392 C29.1864,1.0208 31.0608,0.4212 32.9,0.7296 L39.168,1.7804" id="Shape" stroke-opacity="0.5" stroke="#132A4F"></path>
                        <path d="M58.1088,45.1015625 L25.7516,45.1015625 L29.0773845,28 L41.9299715,28 L54.7830155,28 L58.1088,45.1015625 Z" id="Shape" stroke="#FFFFFF" opacity="0.8"></path>
                        <path d="M42,45.1015625 L42,28" id="Shape" stroke="#FFFFFF" opacity="0.8"></path>
                    </g>
                </g>
            </g>
        </g>
    </g>
</svg>