<?xml version="1.0" encoding="UTF-8" standalone="no"?>
<svg width="100px" height="85px" viewBox="0 0 100 85" version="1.1" xmlns="http://www.w3.org/2000/svg" xmlns:xlink="http://www.w3.org/1999/xlink" xmlns:sketch="http://www.bohemiancoding.com/sketch/ns">
    <!-- Generator: Sketch 3.3.3 (12072) - http://www.bohemiancoding.com/sketch -->
    <title>thin-0719_group_users_circle</title>
    <desc>Created with Sketch.</desc>
    <defs></defs>
    <g id="Page-1" stroke="none" stroke-width="1" fill="none" fill-rule="evenodd" sketch:type="MSPage">
        <g id="猎桔融资-单页" sketch:type="MSArtboardGroup" transform="translate(-670.000000, -2146.000000)" stroke-width="4">
            <g id="Group" sketch:type="MSLayerGroup" transform="translate(302.000000, 2042.000000)">
                <g id="thin-0719_group_users_circle" transform="translate(370.000000, 106.000000)" sketch:type="MSShapeGroup">
                    <g id="Group">
                        <path d="M61.850713,74.6587826 C57.1638261,72.8247652 51.9602087,70.5478957 51.5232,69.1287652 L51.5232,67.6403478 C52.4957217,66.6331826 53.2624696,65.2286609 53.7161739,63.5845565 C54.8030609,62.8119652 55.0797913,61.2137739 54.1753043,60.0872348 L54.1753043,56.7552 C54.1753043,53.3150609 52.2832696,50.9605565 47.9578435,50.9605565 C43.7442783,50.9605565 41.7382957,53.3154783 41.7382957,56.7552 L41.7382957,60.088487 C40.8350609,61.2141913 41.1126261,62.8111304 42.1974261,63.5841391 C42.6511304,65.2290783 43.418713,66.6336 44.3916522,67.6407652 L44.3916522,69.1291826 C43.9554783,70.5466435 38.7510261,72.8239304 34.0641391,74.6592 C33.6646957,74.8161391 33.400487,75.2097391 33.400487,75.6492522 L33.400487,79.3719652 C33.400487,79.9567304 33.8621217,80.4317217 34.4318609,80.4317217 L61.4838261,80.4317217 C62.0531478,80.4317217 62.5152,79.9567304 62.5152,79.3719652 L62.5152,75.6492522 C62.5147826,75.2089043 62.2501565,74.8144696 61.850713,74.6587826 L61.850713,74.6587826 Z" id="Shape" stroke-opacity="0.5" stroke="#132A4F"></path>
                        <path d="M95.2441043,28.7428174 C90.5572174,26.9088 85.3536,24.6319304 84.9165913,23.2128 L84.9165913,21.7243826 C85.889113,20.7172174 86.6558609,19.3126957 87.1095652,17.6685913 C88.1964522,16.896 88.4731826,15.2978087 87.5686957,14.1712696 L87.5686957,10.8388174 C87.5686957,7.39867826 85.6766609,5.04417391 81.3512348,5.04417391 C77.1376696,5.04417391 75.131687,7.39909565 75.131687,10.8388174 L75.131687,14.1721043 C74.2284522,15.2978087 74.5060174,16.8947478 75.5908174,17.6677565 C76.0445217,19.3126957 76.8121043,20.7172174 77.7850435,21.7243826 L77.7850435,23.2128 C77.3488696,24.6302609 72.1444174,26.9075478 67.4575304,28.7428174 C67.058087,28.8997565 66.7938783,29.2933565 66.7938783,29.7328696 L66.7938783,33.4555826 C66.7938783,34.0403478 67.255513,34.5153391 67.8252522,34.5153391 L94.8772174,34.5153391 C95.4465391,34.5153391 95.9085913,34.0403478 95.9085913,33.4555826 L95.9085913,29.7328696 C95.9081739,29.2929391 95.6435478,28.8985043 95.2441043,28.7428174 L95.2441043,28.7428174 Z" id="Shape" stroke-opacity="0.5" stroke="#132A4F"></path>
                        <path d="M28.4573217,28.7428174 C23.7704348,26.9088 18.5672348,24.6319304 18.1298087,23.2128 L18.1298087,21.7243826 C19.1023304,20.7172174 19.8690783,19.3126957 20.3227826,17.6685913 C21.4096696,16.896 21.6864,15.2978087 20.781913,14.1712696 L20.781913,10.8388174 C20.781913,7.39867826 18.8898783,5.04417391 14.5644522,5.04417391 C10.350887,5.04417391 8.34490435,7.39909565 8.34490435,10.8388174 L8.34490435,14.1721043 C7.44166957,15.2978087 7.71923478,16.8947478 8.80403478,17.6677565 C9.25773913,19.3126957 10.0253217,20.7172174 10.9982609,21.7243826 L10.9982609,23.2128 C10.562087,24.6298435 5.35763478,26.9075478 0.670747826,28.7428174 C0.271304348,28.8997565 0.00709565217,29.2933565 0.00709565217,29.7328696 L0.00709565217,33.4555826 C0.00709565217,34.0403478 0.468730435,34.5153391 1.03846957,34.5153391 L28.0904348,34.5153391 C28.6597565,34.5153391 29.1218087,34.0403478 29.1218087,33.4555826 L29.1218087,29.7328696 C29.1213913,29.2929391 28.8567652,28.8985043 28.4573217,28.7428174 L28.4573217,28.7428174 Z" id="Shape" stroke-opacity="0.5" stroke="#132A4F"></path>
                        <path d="M66.6014609,5.65106087 C61.2722087,2.5490087 55.0822957,0.763826087 48.4720696,0.763826087 C41.8618435,0.763826087 35.671513,2.5490087 30.3422609,5.65106087" id="Shape" stroke="#FFFFFF" opacity="0.8"></path>
                        <path d="M68.3770435,66.9650087 C77.0487652,61.2183652 83.1030261,51.8416696 84.3376696,40.9907478 C83.1026087,51.8416696 77.0487652,61.2183652 68.3770435,66.9650087" id="Shape" stroke="#FFFFFF" opacity="0.8"></path>
                        <path d="M28.5670957,66.9650087 C19.8953739,61.2183652 13.8415304,51.8416696 12.6064696,40.9907478 C13.8415304,51.8416696 19.8953739,61.2183652 28.5670957,66.9650087" id="Shape" stroke="#FFFFFF" opacity="0.8"></path>
                    </g>
                </g>
            </g>
        </g>
    </g>
</svg>