<?xml version="1.0" encoding="UTF-8" standalone="no"?>
<svg width="64px" height="72px" viewBox="0 0 64 72" version="1.1" xmlns="http://www.w3.org/2000/svg" xmlns:xlink="http://www.w3.org/1999/xlink" xmlns:sketch="http://www.bohemiancoding.com/sketch/ns">
    <!-- Generator: Sketch 3.3.3 (12072) - http://www.bohemiancoding.com/sketch -->
    <title>Paper</title>
    <desc>Created with Sketch.</desc>
    <defs></defs>
    <g id="Page-1" stroke="none" stroke-width="1" fill="none" fill-rule="evenodd" sketch:type="MSPage">
        <g id="猎桔融资-单页" sketch:type="MSArtboardGroup" transform="translate(-351.000000, -1031.000000)">
            <g id="发布融资需求-+-快速向1000多位IT桔子认证-+-Paper" sketch:type="MSLayerGroup" transform="translate(285.000000, 1031.000000)">
                <g id="Paper" transform="translate(66.000000, 0.000000)" sketch:type="MSShapeGroup">
                    <path d="M0,0.990414396 C0,0.443423629 0.442862511,0 1.00528717,0 L62.9947128,0 C63.5499176,0 64,0.441116229 64,0.990414396 L64,71.0095856 C64,71.5565764 63.5922804,71.8332056 63.0822983,71.6245766 L56,68.7272727 L48,72 L40,68.7272727 L32,72 L24,68.7272727 L16,72 L8,68.7272727 L0.917701721,71.6245766 C0.410869056,71.8319172 0,71.5588838 0,71.0095856 L0,0.990414396 Z" stroke="#525D7D" stroke-width="2"></path>
                    <path d="M31.188,60.288 C31.661,60.73 32.391,61.152 33.049,61.152 C33.481,61.152 34.015,60.905 34.015,60.401 C34.015,59.826 33.213,59.723 32.401,59.424 C31.599,59.126 30.787,58.663 30.787,57.409 C30.787,56.196 31.63,55.075 32.884,54.993 L32.884,53.748 L33.841,53.748 L33.841,54.993 C34.489,55.055 35.157,55.229 35.712,55.589 L34.951,57.08 C34.581,56.782 34.118,56.576 33.635,56.576 C33.183,56.576 32.761,56.741 32.761,57.152 C32.761,57.625 33.409,57.831 33.769,57.954 C34.941,58.345 36,58.776 36,60.206 C36,61.645 35.177,62.386 33.841,62.715 L33.841,64 L32.884,64 L32.884,62.776 C32.432,62.776 31.99,62.684 31.558,62.519 C31.126,62.355 30.684,62.159 30.344,61.841 L31.188,60.288" id="Dollar-symbol" fill="#525D7D"></path>
                    <path d="M8,56 L24,56" id="Line" stroke="#525D7D" stroke-linejoin="round"></path>
                    <path d="M40,60 L56,60" id="Line" stroke="#525D7D" stroke-width="2" stroke-linejoin="round"></path>
                    <path d="M8,60 L16,60" id="Line" stroke="#525D7D" stroke-linejoin="round"></path>
                    <path d="M8,28 L20,28" id="Line" stroke="#525D7D" stroke-linejoin="round"></path>
                    <path d="M44,28 L56,28" id="Line" stroke="#525D7D" stroke-linejoin="round"></path>
                    <path d="M40,21.5 L40,48" id="Line" stroke="#525D7D" stroke-linejoin="round"></path>
                    <path d="M8,32 L20,32" id="Line" stroke="#525D7D" stroke-linejoin="round"></path>
                    <path d="M8,40 L28,40" id="Line" stroke="#525D7D" stroke-linejoin="round"></path>
                    <path d="M44,40 L56,40" id="Line" stroke="#525D7D" stroke-linejoin="round"></path>
                    <path d="M1,48 L62,48" id="Line" stroke="#525D7D" stroke-linecap="round" stroke-linejoin="round" stroke-dasharray="0.5,2"></path>
                    <path d="M8,24 L28,24" id="Line" stroke="#525D7D" stroke-width="2" stroke-linejoin="round"></path>
                    <path d="M44,23.5 L56,23.5" id="Line" stroke="#525D7D" stroke-linejoin="round"></path>
                    <circle id="Oval" fill="#525D7D" cx="32" cy="11" r="4"></circle>
                </g>
            </g>
        </g>
    </g>
</svg>