<?xml version="1.0" encoding="UTF-8" standalone="no"?>
<svg width="88px" height="63px" viewBox="0 0 88 63" version="1.1" xmlns="http://www.w3.org/2000/svg" xmlns:xlink="http://www.w3.org/1999/xlink" xmlns:sketch="http://www.bohemiancoding.com/sketch/ns">
    <!-- Generator: Sketch 3.3.3 (12072) - http://www.bohemiancoding.com/sketch -->
    <title>Paper</title>
    <desc>Created with Sketch.</desc>
    <defs></defs>
    <g id="Page-1" stroke="none" stroke-width="1" fill="none" fill-rule="evenodd" sketch:type="MSPage">
        <g id="猎桔融资-单页" sketch:type="MSArtboardGroup" transform="translate(-978.000000, -1039.000000)">
            <g id="精准匹配投资人-+-利用IT桔子投资机构和投资人数据库-+-Paper" sketch:type="MSLayerGroup" transform="translate(900.000000, 1039.000000)">
                <g id="Paper" transform="translate(78.000000, 0.000000)" sketch:type="MSShapeGroup">
                    <rect stroke="#525D7D" stroke-width="2" x="0" y="0" width="88" height="63" rx="1"></rect>
                    <g id="Person" transform="translate(9.500000, 17.000000)">
                        <path d="M17.25,19.511 C16.978,19.598 16.698,19.634 16.417,19.668 C15.918,19.861 15.42,19.998 14.951,19.998 C14.293,19.998 13.581,19.791 12.882,19.421 C12.656,20.629 12.308,21.917 11.31,22.62 C10.767,23.003 10.101,23.158 9.453,23.305 C8.703,23.475 7.751,23.3989998 7,23.5689998 C6.832,23.6069998 5.669,23.96 5.5,24 C7.752,25.881 11.3770004,27.5000005 14.5340004,27.5000005 C17.8190004,27.5000005 21.28,25.715 23.568,23.695 C23.146,23.613 22.689,23.569 22.188,23.569 C19.262,23.569 17.441,22.679 17.352,19.771 C17.32,19.684 17.282,19.596 17.25,19.511 Z" id="Fill-4-Copy-2" fill="#FFFFFF"></path>
                        <path d="M21.159,12.531 C21.159,16.655 17.614,19.998 14.951,19.998 C12.287,19.998 8.742,16.655 8.742,12.531 C8.742,8.407 10.827,5.065 14.951,5.065 C19.074,5.065 21.159,8.407 21.159,12.531 L21.159,12.531 Z" id="Fill-5-Copy-2" fill="#FFFFFF"></path>
                        <path d="M21.159,12.531 C21.159,16.655 17.614,19.998 14.951,19.998 C12.287,19.998 8.742,16.655 8.742,12.531 C8.742,8.407 10.827,5.065 14.951,5.065 C19.074,5.065 21.159,8.407 21.159,12.531 L21.159,12.531 Z" id="Stroke-6-Copy" stroke="#132A4F" stroke-width="0.742" stroke-linecap="round" stroke-linejoin="round"></path>
                        <path d="M18.048,6.088 C18.048,6.088 16.767,11.477 9.037,11.477" id="Fill-7-Copy-2" fill="#FFFFFF"></path>
                        <path d="M18.048,6.088 C18.048,6.088 16.767,11.477 9.037,11.477" id="Stroke-8-Copy" stroke="#132A4F" stroke-width="0.742" stroke-linecap="round" stroke-linejoin="round"></path>
                        <path d="M17.255,8.099 C17.255,11.327 21.159,12.531 21.159,12.531" id="Fill-9-Copy" fill="#FFFFFF"></path>
                        <path d="M17.255,8.099 C17.255,11.327 21.159,12.531 21.159,12.531" id="Stroke-10-Copy" stroke="#132A4F" stroke-width="0.742" stroke-linecap="round" stroke-linejoin="round"></path>
                        <path d="M5.50000001,24.0000001 C6.13600001,23.6880001 6.071,23.532 7.088,23.532 C10.088,23.532 12.734,22.385 12.734,19.561 M17.335,19.561 C17.335,22.649 19.188,23.569 22.188,23.569 C23.144,23.569 22.81,23.7170001 23.5,24.0000001 M10.641,22.901 C12.504,24.764 17.296,24.897 18.805,22.901" id="Stroke-11-Copy" stroke="#132A4F" stroke-width="0.742" stroke-linecap="round" stroke-linejoin="round"></path>
                        <path d="M0.5,14 C0.5,21.735 6.765,28 14.5,28 C22.235,28 28.5,21.735 28.5,14 C28.5,6.265 22.235,0 14.5,0 C6.765,0 0.5,6.265 0.5,14" id="Oval" fill-opacity="0.1" fill="#132A4F"></path>
                        <ellipse id="Oval" stroke="#525D7D" stroke-width="2" cx="14.5" cy="14" rx="13" ry="13"></ellipse>
                    </g>
                    <g id="Group" transform="translate(47.000000, 20.000000)" stroke="#525D7D" stroke-linejoin="round">
                        <path d="M0,13 L29,13" id="Line"></path>
                        <path d="M0,21 L29,21" id="Line"></path>
                        <path d="M0,17 L29,17" id="Line"></path>
                        <path d="M5.8,5 L23.2,5" id="Line"></path>
                        <path d="M2.9,1 L26.1,1" id="Line" stroke-width="2"></path>
                    </g>
                </g>
            </g>
        </g>
    </g>
</svg>