<?xml version="1.0" encoding="UTF-8" standalone="no"?>
<svg width="685px" height="41px" viewBox="0 0 685 41" version="1.1" xmlns="http://www.w3.org/2000/svg" xmlns:xlink="http://www.w3.org/1999/xlink" xmlns:sketch="http://www.bohemiancoding.com/sketch/ns">
    <!-- Generator: Sketch 3.3.2 (12043) - http://www.bohemiancoding.com/sketch -->
    <title>为优质的创业项目找到合适的投资人</title>
    <desc>Created with Sketch.</desc>
    <defs></defs>
    <g id="Page-1" stroke="none" stroke-width="1" fill="none" fill-rule="evenodd" sketch:type="MSPage">
        <g id="-" sketch:type="MSArtboardGroup" transform="translate(-12.000000, -15.000000)" fill="#FFFFFF">
            <path d="M30.2114258,18.7314453 L50.6616211,18.7314453 L50.6616211,48.5878906 L45.3286133,54.2358398 L35.7753906,54.2358398 L35.7753906,48.7978516 L43.6489258,48.7978516 L43.6489258,23.7915039 L29.1826172,23.7915039 L22.9467773,54.2988281 L15.8291016,54.2988281 L22.1489258,23.7915039 L12.5957031,23.7915039 L12.5957031,18.7314453 L14.2963867,18.7314453 L13.2255859,16.1699219 L20.1962891,16.1699219 L21.519043,18.7314453 L23.1777344,18.7314453 L23.765625,15.9179688 L30.7783203,15.9179688 L30.2114258,18.7314453 Z M36.2373047,29.5444336 L41.90625,44.0107422 L34.3476562,44.0107422 L28.6787109,29.5444336 L36.2373047,29.5444336 Z M66.3457031,23.0986328 L72.4555664,23.0986328 L73.2324219,15.2041016 L80.0351562,15.2041016 L79.1953125,23.0986328 L94.4174805,23.0986328 L92.296875,28.1376953 L88.7695312,28.1376953 L88.7695312,49.4487305 L94.984375,49.4487305 L92.8007812,54.2148438 L82.0927734,54.2148438 L82.0927734,28.1376953 L78.5864258,28.1376953 L75.1640625,54.2148438 L68.2353516,54.2148438 L72.0356445,28.1376953 L66.3457031,28.1376953 L66.3457031,23.0986328 Z M60.5087891,15.6450195 L67.6054688,15.6450195 L65.5688477,22.0488281 L65.5688477,52.5561523 L58.8920898,55.4746094 L58.8920898,29.9643555 L55.5957031,29.9643555 L60.5087891,15.6450195 Z M87.8666992,15.078125 C88.4965852,15.078125 89.1229624,15.2460921 89.7458496,15.5820312 C90.3687368,15.9179704 90.8621401,16.3973764 91.2260742,17.0202637 C91.5900083,17.6431509 91.7719727,18.2975226 91.7719727,18.9833984 C91.7579752,19.6832717 91.5760109,20.3376434 91.2260742,20.9465332 C90.8761376,21.555423 90.4037302,22.0313297 89.8088379,22.3742676 C89.2139456,22.7172055 88.5665725,22.8816732 87.8666992,22.8676758 C87.1668259,22.8676758 86.5124542,22.6997087 85.9035645,22.3637695 C85.2946747,22.0278304 84.8222673,21.5624216 84.4863281,20.9675293 C84.1503889,20.372637 83.9789226,19.7182653 83.9719238,19.0043945 C83.9649251,18.2905238 84.1363915,17.6326527 84.4863281,17.0307617 C84.8362648,16.4008758 85.329668,15.9214697 85.9665527,15.5925293 C86.6034374,15.2635889 87.2368133,15.0921225 87.8666992,15.078125 L87.8666992,15.078125 Z M100.800293,17.0097656 L138.509277,16.5058594 L136.514648,21.2509766 L124.924805,21.6079102 L124.924805,24.4423828 L137.333496,24.4423828 L135.128906,28.9775391 L124.924805,28.9775391 L124.924805,31.8120117 L136.787598,31.8120117 L136.787598,43.6748047 L130.383789,46.1523438 L130.383789,36.3261719 L114.678711,36.3261719 L114.720703,44.4936523 L108.253906,47.0761719 L108.253906,31.8120117 L118.520996,31.8120117 L118.520996,28.9775391 L107.288086,28.9775391 L107.288086,52.262207 L100.800293,55.0336914 L100.800293,17.0097656 Z M118.520996,24.4423828 L118.520996,21.6079102 L107.288086,21.6079102 L107.288086,24.4423828 L118.520996,24.4423828 Z M137.459473,54.1098633 L129.438965,54.1518555 L121.964355,47.097168 L116.085449,54.2568359 L108.106934,54.2148438 L118.835937,42.2260742 L118.835937,38.6567383 L125.155762,38.6567383 L125.155762,42.0791016 L137.459473,54.1098633 Z M164.397461,54.2148438 L164.397461,49.4907227 L173.341797,49.4907227 L173.341797,22.8466797 L169.07959,22.8466797 L168.155762,24.4003906 L160.996094,24.4003906 L165.594238,15.1621094 L172.858887,15.1621094 L171.410156,17.996582 L179.619629,17.996582 L179.619629,48.9448242 L173.341797,54.2148438 L164.397461,54.2148438 Z M153.080566,17.996582 L159.862305,17.996582 L159.862305,49.0078125 L153.773438,54.2148438 L142.981445,54.2148438 L142.981445,17.996582 L145.836914,17.996582 L146.970703,15.2460938 L154.067383,15.2460938 L153.080566,17.996582 Z M153.563477,33.0927734 L153.563477,22.8466797 L149.322266,22.8466797 L149.322266,33.0927734 L153.563477,33.0927734 Z M153.563477,34.1425781 L151.862793,37.9848633 L149.322266,37.9848633 L149.322266,49.4907227 L153.563477,49.4907227 L153.563477,34.1425781 Z M167.210938,31.0351562 C167.868818,31.0351562 168.512692,31.2031233 169.142578,31.5390625 C169.772464,31.8750017 170.265867,32.3649056 170.622803,33.0087891 C170.979738,33.6526725 171.161702,34.3280401 171.168701,35.0349121 C171.1757,35.7417841 171.004234,36.3961558 170.654297,36.9980469 C170.30436,37.5999379 169.814456,38.0828432 169.18457,38.4467773 C168.554684,38.8107115 167.896813,38.9856772 167.210938,38.9716797 C166.525062,38.9716797 165.863691,38.7932147 165.226807,38.4362793 C164.589922,38.0793439 164.096519,37.5999379 163.746582,36.9980469 C163.396645,36.3961558 163.228678,35.7312862 163.242676,35.003418 C163.242676,34.3035447 163.421141,33.6351757 163.778076,32.998291 C164.135012,32.3614063 164.631914,31.878501 165.268799,31.5495605 C165.905684,31.2206201 166.553057,31.0491537 167.210938,31.0351562 L167.210938,31.0351562 Z M217.013672,49.8896484 L217.013672,15.4560547 L223.375488,15.4560547 L223.375488,49.7216797 L217.013672,54.5507812 L210.420898,54.5507812 L210.420898,49.8896484 L217.013672,49.8896484 Z M185.162598,27.9067383 L205.507812,27.9067383 L205.507812,39.9794922 L200.048828,44.9975586 L194.274902,44.9975586 L194.274902,40.3364258 L198.936035,40.3364258 L198.936035,32.6308594 L191.629395,32.6308594 L191.629395,49.8896484 L206.095703,49.8896484 L203.996094,54.5297852 L185.162598,54.5507812 L185.162598,27.9067383 Z M184.259766,25.7021484 L191.125488,15.7919922 L199.922852,15.7919922 L206.578613,25.7021484 L199.481934,25.7021484 L195.639648,20.0332031 L191.398438,25.7021484 L184.259766,25.7021484 Z M214.326172,17.9125977 L214.326172,42.2260742 L208.006348,46.1943359 L208.006348,17.9125977 L214.326172,17.9125977 Z M228.855469,49.1757812 L239.500488,49.1757812 L239.500488,15.1621094 L245.904297,15.1621094 L245.904297,49.1757812 L248.906738,49.1757812 L248.906738,15.1621094 L255.310547,15.1621094 L255.310547,49.1757812 L267.845215,49.1757812 L265.07373,54.2358398 L228.855469,54.2358398 L228.855469,49.1757812 Z M265.871582,16.9467773 L262.28125,43.8007812 L256.318359,43.8007812 L260.055664,16.9467773 L265.871582,16.9467773 Z M228.939453,16.9467773 L234.776367,16.9467773 L238.513672,43.8007812 L232.550781,43.8007812 L228.939453,16.9467773 Z M275.529785,20.9570312 L271.015625,20.9570312 L271.015625,15.9179688 L286.342773,15.9179688 L283.949219,20.9570312 L281.849609,20.9570312 L281.849609,49.4067383 L286.048828,49.4067383 L283.697266,54.5087891 L270.952637,54.5087891 L270.952637,49.4067383 L275.529785,49.4067383 L275.529785,20.9570312 Z M309.753418,15.7709961 L307.170898,21.1879883 L301.690918,21.1879883 L301.061035,23.5605469 L309.228516,23.5605469 L309.228516,40.4624023 L302.824707,43.4438477 L302.824707,28.956543 L293.502441,28.956543 L293.502441,41.953125 L287.098633,44.9555664 L287.098633,23.5605469 L294.321289,23.5605469 L295.056152,21.1879883 L287.32959,21.1879883 L287.32959,15.7709961 L309.753418,15.7709961 Z M301.312988,31.3081055 L301.312988,42.0371094 L310.131348,54.3198242 L302.404785,54.3198242 L298.016602,48.440918 L293.964355,54.3198242 L286.867676,54.3198242 L294.90918,41.8061523 L294.930176,31.3081055 L301.312988,31.3081055 Z M351.892578,48.440918 L345.59375,53.7739258 L315.002441,53.7529297 L315.002441,16.4008789 L351.871582,16.4008789 L351.892578,48.440918 Z M344.942871,48.7978516 L344.984863,21.4609375 L321.805176,21.4609375 L321.805176,27.0458984 L342.507324,27.0458984 L340.365723,31.875 L321.805176,31.875 L321.805176,37.8798828 L342.360352,37.8798828 L340.092773,42.7929688 L321.805176,42.7929688 L321.805176,48.7768555 L344.942871,48.7978516 Z M386.704102,31.9379883 L388.236816,29.628418 L394.850586,29.6074219 L387.564941,40.6513672 L388.467773,49.5537109 L396.404297,49.5537109 L393.632812,54.4038086 L382.105957,54.4038086 L381.581055,49.0078125 L375.450195,49.0078125 L380.804199,40.9033203 L379.544434,27.7597656 L375.240234,27.7597656 L375.240234,23.1616211 L379.103516,23.1616211 L378.242676,15.8549805 L385.129395,15.8549805 L385.948242,23.1616211 L395.921387,23.1616211 L393.779785,27.7597656 L386.305176,27.7597656 L386.704102,31.9379883 Z M370.978027,28.1166992 L374.106445,28.1166992 L370.978027,33.4077148 L370.978027,49.7006836 L365.330078,54.7607422 L359.220215,54.7607422 L359.220215,50.0786133 L364.049316,50.0786133 L364.049316,43.6748047 L357.58252,43.6748047 L364.049316,32.8408203 L364.049316,25.4082031 L357.078613,25.4082031 L357.078613,20.6210938 L364.049316,20.6210938 L364.049316,15.6450195 L370.978027,15.6450195 L370.978027,20.6210938 L374.820312,20.6210938 L372.594727,25.4082031 L370.978027,25.4082031 L370.978027,28.1166992 Z M391.008301,15.2250977 C391.582197,15.2390951 392.166582,15.3965643 392.761475,15.6975098 C393.356367,15.9984553 393.811278,16.4358695 394.126221,17.0097656 C394.441164,17.5836617 394.602132,18.199541 394.609131,18.8574219 C394.61613,19.5153028 394.465659,20.1101861 394.157715,20.6420898 C393.835773,21.187991 393.384362,21.6289046 392.803467,21.9648438 C392.222572,22.3007829 391.624189,22.46875 391.008301,22.46875 C390.364417,22.4827475 389.759036,22.321779 389.192139,21.9858398 C388.625241,21.6499007 388.180828,21.2054878 387.858887,20.6525879 C387.536945,20.099688 387.382975,19.4943067 387.396973,18.8364258 C387.396973,18.2065398 387.56144,17.6011585 387.890381,17.0202637 C388.219321,16.4393688 388.670733,15.994956 389.244629,15.6870117 C389.818525,15.3790675 390.40641,15.2250977 391.008301,15.2250977 L391.008301,15.2250977 Z M400.58252,16.0019531 L423.258301,16.0019531 L421.053711,20.5791016 L412.529297,20.5791016 L408.015137,29.7753906 L417.232422,29.7753906 L416.098633,24.5473633 L421.977539,24.5473633 L423.951172,34.3735352 L418.219238,34.3735352 L417.841309,32.2739258 L416.959473,34.3735352 L415.048828,34.3735352 L415.048828,39.4755859 L423.069336,39.4755859 L420.885742,43.8427734 L415.048828,43.8427734 L415.048828,49.8896484 L423.090332,49.8896484 L420.969727,54.3618164 L400.708496,54.3618164 L400.708496,49.8896484 L408.561035,49.8896484 L408.561035,43.8427734 L400.666504,43.8427734 L400.666504,39.4755859 L408.561035,39.4755859 L408.561035,34.3735352 L400.58252,34.3735352 L400.58252,29.9643555 L405.117676,20.5791016 L400.58252,20.5791016 L400.58252,16.0019531 Z M432.118652,15.309082 L438.228516,15.309082 L438.228516,49.5957031 L433.504395,54.4038086 L426.617676,54.4038086 L426.617676,49.4487305 L432.097656,49.4697266 L432.118652,15.309082 Z M430.459961,18.1645508 L430.459961,44.5356445 L424.434082,47.5170898 L424.434082,18.1645508 L430.459961,18.1645508 Z M481.438477,30.1113281 L479.548828,34.5625 L443.79248,34.5625 L443.79248,30.1113281 L481.438477,30.1113281 Z M444.506348,37.5649414 L480.45166,37.5649414 L480.45166,48.8608398 L473.375977,53.7739258 L444.506348,53.7319336 L444.506348,37.5649414 Z M473.459961,41.9951172 L451.477051,41.9951172 L451.477051,48.8608398 L473.459961,48.8608398 L473.459961,41.9951172 Z M467.434082,16.0649414 L481.501465,27.2768555 L471.633301,27.2768555 L462.730957,20.2641602 L453.408691,27.2978516 L443.435547,27.2978516 L458.027832,16.0649414 L467.434082,16.0649414 Z M514.150391,21.4819336 L514.150391,25.7021484 L524.669434,25.7021484 L522.695801,30.2583008 L514.150391,30.2583008 L514.108398,33.2397461 L524.123535,33.2397461 L524.102539,42.3100586 L517.866699,46.7612305 L498.025391,46.7822266 L498.025391,33.3027344 L498.046387,33.2817383 L498.046387,33.2397461 L507.80957,33.2397461 L507.80957,30.2583008 L498.025391,30.2583008 L498.025391,25.7021484 L507.80957,25.7021484 L507.80957,21.9228516 L498.088379,22.9726562 L498.088379,17.5976562 L524.774414,15.309082 L523.535645,20.5371094 L514.150391,21.4819336 Z M517.740723,37.921875 L504.366211,37.921875 L504.366211,42.2050781 L517.719727,42.2260742 L517.740723,37.921875 Z M495.043945,27.8647461 L495.043945,46.1943359 L501.321777,49.574707 L524.627441,49.5957031 L522.443848,54.277832 L498.067383,54.277832 L495.043945,52.4931641 L488.598145,55.5795898 L488.619141,32.6938477 L485.595703,32.6938477 L485.595703,27.8647461 L495.043945,27.8647461 Z M491.621582,15.3930664 C492.307458,15.3930664 492.975827,15.5680321 493.626709,15.9179688 C494.277591,16.2679054 494.788491,16.7753059 495.159424,17.4401855 C495.530357,18.1050652 495.71932,18.8014287 495.726318,19.5292969 C495.733317,20.2571651 495.554852,20.936032 495.190918,21.565918 C494.826984,22.2098014 494.326582,22.7137026 493.689697,23.0776367 C493.052813,23.4415708 492.363448,23.6165365 491.621582,23.6025391 C490.893714,23.6025391 490.207848,23.4205747 489.563965,23.0566406 C488.920081,22.6927065 488.41618,22.1993032 488.052246,21.576416 C487.688312,20.9535288 487.513346,20.2641639 487.527344,19.5083008 C487.527344,18.7804326 487.712807,18.0875684 488.08374,17.4296875 C488.454673,16.7718066 488.965573,16.2714047 489.616455,15.9284668 C490.267337,15.5855289 490.935706,15.4070639 491.621582,15.3930664 L491.621582,15.3930664 Z M551.397461,54.2148438 L551.397461,49.4907227 L560.341797,49.4907227 L560.341797,22.8466797 L556.07959,22.8466797 L555.155762,24.4003906 L547.996094,24.4003906 L552.594238,15.1621094 L559.858887,15.1621094 L558.410156,17.996582 L566.619629,17.996582 L566.619629,48.9448242 L560.341797,54.2148438 L551.397461,54.2148438 Z M540.080566,17.996582 L546.862305,17.996582 L546.862305,49.0078125 L540.773438,54.2148438 L529.981445,54.2148438 L529.981445,17.996582 L532.836914,17.996582 L533.970703,15.2460938 L541.067383,15.2460938 L540.080566,17.996582 Z M540.563477,33.0927734 L540.563477,22.8466797 L536.322266,22.8466797 L536.322266,33.0927734 L540.563477,33.0927734 Z M540.563477,34.1425781 L538.862793,37.9848633 L536.322266,37.9848633 L536.322266,49.4907227 L540.563477,49.4907227 L540.563477,34.1425781 Z M554.210938,31.0351562 C554.868818,31.0351562 555.512692,31.2031233 556.142578,31.5390625 C556.772464,31.8750017 557.265867,32.3649056 557.622803,33.0087891 C557.979738,33.6526725 558.161702,34.3280401 558.168701,35.0349121 C558.1757,35.7417841 558.004234,36.3961558 557.654297,36.9980469 C557.30436,37.5999379 556.814456,38.0828432 556.18457,38.4467773 C555.554684,38.8107115 554.896813,38.9856772 554.210938,38.9716797 C553.525062,38.9716797 552.863691,38.7932147 552.226807,38.4362793 C551.589922,38.0793439 551.096519,37.5999379 550.746582,36.9980469 C550.396645,36.3961558 550.228678,35.7312862 550.242676,35.003418 C550.242676,34.3035447 550.421141,33.6351757 550.778076,32.998291 C551.135012,32.3614063 551.631914,31.878501 552.268799,31.5495605 C552.905684,31.2206201 553.553057,31.0491537 554.210938,31.0351562 L554.210938,31.0351562 Z M593.347656,46.5932617 L587.132812,40.7563477 L595.804199,40.7353516 L597.462891,42.2470703 L600.90625,38.9086914 L587.132812,38.9296875 L587.132812,34.1005859 L609.850586,34.1005859 L609.82959,38.9086914 L602.061035,46.4672852 L610.732422,54.4038086 L601.620117,54.4038086 L597.882812,50.8344727 L594.439453,54.277832 L585.390137,54.277832 L593.347656,46.5932617 Z M609.094727,33.0297852 L602.480957,33.0297852 L602.480957,20.6630859 L594.754395,20.6630859 L594.754395,31.2661133 L588.287598,33.3867188 L588.287598,16.1699219 L608.86377,16.1699219 L608.86377,28.2006836 L610.984375,28.2006836 L609.094727,33.0297852 Z M584.907227,29.0405273 L587.741699,29.0405273 L584.907227,34.1005859 L584.907227,49.2177734 L579.40625,54.5087891 L574.199219,54.4458008 L574.199219,49.5957031 L578.524414,49.5537109 L578.503418,43.6748047 L572.141602,43.6748047 L578.482422,32.3579102 L578.482422,24.8833008 L572.624512,24.8833008 L572.624512,20.3481445 L578.419434,20.3481445 L578.419434,15.4560547 L584.907227,15.4560547 L584.907227,20.3481445 L587.699707,20.3271484 L585.831055,24.7783203 L584.907227,24.8203125 L584.907227,29.0405273 Z M616.128418,35.9902344 L653.123535,35.9902344 L653.123535,46.5722656 L646.467773,48.9448242 L646.467773,40.7353516 L622.805176,40.7353516 L622.805176,47.3701172 L616.128418,49.8686523 L616.128418,35.9902344 Z M631.602539,42.0161133 L638.342285,42.0161133 L638.342285,45.2915039 L654.110352,54.4038086 L643.80127,54.4248047 L635.024902,49.6586914 L625.807617,54.5717773 L615.834473,54.5507812 L631.623535,45.2915039 L631.602539,42.0161133 Z M643.234375,25.5131836 L647.244629,25.5131836 L653.984375,34.2895508 L646.908691,34.2895508 L641.70166,26.9829102 L634.353027,34.2895508 L626.626465,34.2895508 L637.754395,23.1616211 L645.396973,23.1616211 L643.234375,25.5131836 Z M620.663574,26.2060547 L627.67627,26.2060547 L621.734375,34.2895508 L614.301758,34.2895508 L620.663574,26.2060547 Z M636.32666,21.4609375 L635.402832,23.8754883 L628.978027,23.8754883 L631.8125,15.8129883 L637.985352,15.8129883 L637.460449,17.2827148 L654.131348,17.2827148 L654.131348,23.6025391 L647.853516,25.6391602 L647.853516,21.4609375 L636.32666,21.4609375 Z M615.855469,16.2329102 L622.78418,16.2329102 L627.67627,23.8544922 L620.57959,23.8754883 L615.855469,16.2329102 Z M674.980469,15.309082 L682.97998,15.309082 L677.688965,27.4868164 L683.630859,27.4868164 L696.606445,54.3828125 L688.166016,54.4038086 L676.702148,30.2792969 L666.666016,54.6347656 L658.58252,54.6137695 L674.980469,15.309082 Z" id="为优质的创业项目找到合适的投资人" sketch:type="MSShapeGroup"></path>
        </g>
    </g>
</svg>