<?xml version="1.0" encoding="UTF-8" standalone="no"?>
<svg width="684px" height="37px" viewBox="0 0 684 37" version="1.1" xmlns="http://www.w3.org/2000/svg" xmlns:xlink="http://www.w3.org/1999/xlink" xmlns:sketch="http://www.bohemiancoding.com/sketch/ns">
    <!-- Generator: Sketch 3.3.2 (12043) - http://www.bohemiancoding.com/sketch -->
    <title>为优质的创业项目找到合适的投资人 copy 5</title>
    <desc>Created with Sketch.</desc>
    <defs></defs>
    <g id="Page-1" stroke="none" stroke-width="1" fill="none" fill-rule="evenodd" sketch:type="MSPage">
        <g id="-" sketch:type="MSArtboardGroup" transform="translate(-13.000000, -17.000000)" fill="#FFFFFF">
            <path d="M13.1206055,53.6821289 L13.1416016,49.7348633 C15.0312594,49.1049773 16.7179288,48.02019 18.2016602,46.4804688 C19.2514701,45.4026639 20.0983041,44.3458711 20.7421875,43.3100586 C21.0641292,42.8061498 21.8339783,41.1544736 23.0517578,38.3549805 L26.7050781,29.9775391 L13.1835938,29.9775391 L13.1835938,26.0302734 L28.4477539,26.0302734 L32.059082,17.7998047 L36.0483398,17.7998047 L32.5419922,26.0302734 L44.5097656,26.0302734 C47.1412892,26.0302734 49.0379174,26.6181582 50.199707,27.7939453 C51.3055068,28.9137426 51.8583984,30.3274654 51.8583984,32.0351562 L51.8583984,46.1445312 C51.8583984,47.4183006 51.7954108,48.3211236 51.6694336,48.8530273 C51.3474919,50.224779 50.6266332,51.3095663 49.5068359,52.1074219 C48.3870387,52.9052774 47.1342843,53.3041992 45.7485352,53.3041992 L35.859375,53.3041992 L35.859375,49.3569336 L44.4677734,49.3779297 C45.5175834,49.3779297 46.1894517,49.3219407 46.4833984,49.2099609 C47.1552768,48.9580066 47.5821931,48.4820999 47.7641602,47.7822266 C47.8621424,47.404295 47.9111328,46.4384843 47.9111328,44.8847656 L47.9111328,35.0166016 C47.9111328,32.7630096 47.7921561,31.4542661 47.5541992,31.090332 C47.0642879,30.3484663 46.1614649,29.9775391 44.8457031,29.9775391 L30.7993164,29.9775391 L26.7050781,39.5517578 C25.2073493,43.0651217 23.688647,45.7805894 22.1489258,47.6982422 C20.4832273,49.7838646 18.6705827,51.33756 16.7109375,52.359375 C15.8290972,52.8212914 14.6323318,53.2622049 13.1206055,53.6821289 L13.1206055,53.6821289 Z M15.5771484,23.0488281 L15.5771484,19.0385742 L25.5922852,19.0385742 L25.5922852,23.0488281 L15.5771484,23.0488281 Z M31.4501953,41.3154297 L31.4501953,37.3681641 L44.4257812,37.3681641 L44.4257812,41.3154297 L31.4501953,41.3154297 Z M56.0576172,34.0927734 L56.0576172,29.0957031 C57.7793055,27.919916 59.1510366,26.3032329 60.1728516,24.2456055 C60.9007198,22.789869 61.6075812,20.5992985 62.293457,17.6738281 L66.6606445,17.6738281 C66.282713,19.4934987 65.9327816,20.9422147 65.6108398,22.0200195 C65.3168931,23.0418345 64.8199905,24.3295821 64.1201172,25.8833008 L64.1621094,53.3041992 L60.1308594,53.3041992 L60.1308594,31.5522461 C59.0250596,32.4340864 57.6673258,33.2809204 56.0576172,34.0927734 L56.0576172,34.0927734 Z M66.1987305,53.4511719 L66.1987305,49.5458984 C68.046396,48.3841088 69.4881133,46.6694449 70.5239258,44.4018555 C71.3077839,42.6941646 71.944659,40.3566229 72.4345703,37.3891602 L74.1142578,27.3950195 L66.324707,27.3950195 L66.324707,23.5107422 L74.7651367,23.5107422 L75.730957,17.7158203 L79.7202148,17.7158203 L78.7543945,23.5107422 L94.6694336,23.5107422 L94.6694336,27.3950195 L78.0825195,27.3950195 L76.2348633,38.7119141 C75.6049773,42.4632349 74.632168,45.4656463 73.3164062,47.7192383 C72.0426369,49.8888455 70.572925,51.4635368 68.9072266,52.4433594 C68.2493457,52.8352884 67.3465227,53.1712226 66.1987305,53.4511719 L66.1987305,53.4511719 Z M81.7568359,29.7885742 L85.7041016,29.7885742 L85.7250977,46.5014648 C85.7250977,47.7192444 86.01904,48.5520811 86.6069336,49 C86.8448905,49.1679696 87.0478507,49.2694497 87.2158203,49.3044434 C87.3837899,49.339437 87.796709,49.3569336 88.4545898,49.3569336 L94.6694336,49.3569336 L94.6694336,53.3041992 L88.4545898,53.3041992 C85.6131043,53.3041992 83.6324926,52.3523858 82.5126953,50.4487305 C81.9947891,49.5668901 81.7358398,48.3421302 81.7358398,46.7744141 L81.7568359,29.7885742 Z M86.2290039,21.6210938 L86.2290039,17.6738281 L94.6064453,17.6738281 L94.6064453,21.6210938 L86.2290039,21.6210938 Z M99.0786133,53.262207 L99.0786133,49.4199219 C99.9184612,49.1399726 100.48535,48.6920604 100.779297,48.0761719 C101.101239,47.418291 101.262207,46.2355229 101.262207,44.527832 L101.262207,25.2324219 C101.262207,23.3847564 101.45117,22.1040075 101.829102,21.3901367 C102.836919,19.4584864 104.558582,18.4926758 106.994141,18.4926758 L132.714355,18.4926758 C133.372236,18.4926758 133.729166,18.1567416 133.785156,17.4848633 L137.732422,17.4848633 C137.536457,19.0525795 137.088545,20.2003544 136.388672,20.9282227 C135.436844,21.8940478 134.07911,22.3769531 132.31543,22.3769531 L108.589844,22.3769531 C107.456049,22.3769531 106.756186,22.453938 106.490234,22.6079102 C105.650386,23.083824 105.22347,23.7486936 105.209473,24.6025391 L105.209473,45.4516602 C105.195475,48.0831837 104.572597,50.0917899 103.34082,51.4775391 C102.305008,52.6253313 100.884286,53.2202146 99.0786133,53.262207 L99.0786133,53.262207 Z M107.729004,53.1152344 L107.729004,49.1049805 C111.494322,48.3911097 114.300772,47.3553128 116.148438,45.9975586 C117.884123,44.7237892 119.136878,43.1001075 119.906738,41.1264648 C120.22868,40.3006144 120.501626,39.0828531 120.725586,37.4731445 L124.861816,37.4731445 C125.183758,39.8667112 125.750647,41.714349 126.5625,43.0161133 C127.836269,45.1017357 129.788887,46.6694283 132.42041,47.7192383 C133.666185,48.2091496 135.464832,48.6920549 137.816406,49.1679688 L137.816406,53.1992188 C134.31704,52.5833303 131.538585,51.7434949 129.480957,50.6796875 C127.619294,49.7138624 126.0586,48.4961011 124.798828,47.0263672 C124.252927,46.3824838 123.532068,45.3536855 122.63623,43.9399414 C121.964352,45.3676829 121.257491,46.5154579 120.515625,47.3833008 C118.835929,49.3289485 116.372412,50.8336535 113.125,51.8974609 C111.781243,52.3313824 109.982596,52.7373028 107.729004,53.1152344 L107.729004,53.1152344 Z M107.770996,29.284668 L107.770996,25.4003906 L120.80957,25.4003906 L120.80957,23.4267578 L124.693848,23.4267578 L124.693848,25.4003906 L137.79541,25.4003906 L137.79541,29.284668 L124.693848,29.284668 L124.693848,32.2661133 L132.840332,32.2661133 C134.254076,32.2661133 135.317868,32.609046 136.031738,33.2949219 C136.745609,33.9807977 137.102539,34.8206331 137.102539,35.8144531 L137.081543,46.5644531 L133.260254,46.5644531 L133.260254,37.6831055 C133.260254,36.6612905 132.630377,36.1503906 131.370605,36.1503906 L114.069824,36.1503906 C112.852045,36.1503906 112.243164,36.633296 112.243164,37.5991211 L112.26416,46.5644531 L108.421875,46.5644531 L108.400879,36.1923828 C108.400879,34.9746033 108.764808,34.0087926 109.492676,33.2949219 C110.178552,32.609046 111.165358,32.2661133 112.453125,32.2661133 L120.80957,32.2661133 L120.80957,29.284668 L107.770996,29.284668 Z M161.940918,27.5419922 L161.940918,23.4477539 C163.270677,22.789873 164.257484,21.9010473 164.901367,20.78125 C165.279299,20.0953742 165.636229,19.0315827 165.972168,17.5898438 L170.024414,17.5898438 C169.786457,18.4436892 169.548504,19.25553 169.310547,20.0253906 L175.378418,20.0253906 C177.072111,20.0113932 178.408849,20.5152944 179.388672,21.5371094 C180.396489,22.5869193 180.900391,23.8886641 180.900391,25.4423828 L180.900391,47.6772461 C180.900391,49.4969167 180.396489,50.9246367 179.388672,51.9604492 C178.408849,52.9822642 177.191088,53.4931641 175.735352,53.4931641 L165.363281,53.4931641 L165.363281,49.6088867 L174.706543,49.6088867 C176.260262,49.6088867 177.037109,48.6780692 177.037109,46.8164062 L177.037109,26.8911133 C177.037109,25.8832957 176.88314,25.1764343 176.575195,24.7705078 C176.155271,24.2106092 175.532393,23.9306641 174.706543,23.9306641 L167.441895,23.909668 C165.902173,25.7573335 164.068533,26.9680961 161.940918,27.5419922 L161.940918,27.5419922 Z M163.389648,38.3969727 L163.389648,34.449707 L174.580566,34.449707 L174.580566,38.3969727 L163.389648,38.3969727 Z M145.458984,20.6552734 L145.458984,17.8208008 L149.30127,17.8208008 L149.30127,20.6552734 L156.145996,20.6552734 C157.433763,20.6552734 158.441565,21.0052048 159.169434,21.7050781 C159.883304,22.4049514 160.240234,23.3987566 160.240234,24.6865234 L160.240234,49.230957 C160.240234,50.7426833 159.911299,51.8274707 159.253418,52.4853516 C158.553545,53.1712274 157.755701,53.5141602 156.859863,53.5141602 L146.067871,53.5141602 C144.794102,53.5141602 143.828291,53.1712274 143.17041,52.4853516 C142.652504,51.9534479 142.344564,51.3655631 142.246582,50.7216797 C142.176595,50.3297506 142.141602,49.8048535 142.141602,49.1469727 L142.141602,25.1274414 C142.141602,23.3777582 142.540523,22.1669955 143.338379,21.4951172 C143.800295,21.1031881 144.507157,20.823243 145.458984,20.6552734 L145.458984,20.6552734 Z M156.355957,38.5649414 L146.025879,38.5649414 L146.025879,48.2651367 C146.025879,49.1889695 146.396806,49.6508789 147.138672,49.6508789 L155.138184,49.6508789 C155.950037,49.6508789 156.355957,49.2519571 156.355957,48.4541016 L156.355957,38.5649414 Z M146.025879,34.6806641 L156.355957,34.6806641 L156.355957,25.8413086 C156.355957,24.9874632 155.894048,24.5605469 154.970215,24.5605469 L147.453613,24.5395508 C146.501786,24.5395508 146.025879,25.0714465 146.025879,26.1352539 L146.025879,34.6806641 Z M185.099609,29.1796875 L185.099609,25.5263672 C186.653328,25.4563799 187.598143,25.3234059 187.934082,25.1274414 C188.354006,24.875487 189.04687,23.6367299 190.012695,21.4111328 C190.628584,20.0113862 191.16048,19.0875673 191.608398,18.6396484 C192.252282,17.995765 193.183099,17.6738281 194.400879,17.6738281 L201.539551,17.6738281 C202.561366,17.6738281 203.387204,17.9817678 204.01709,18.5976562 C204.562991,19.1435574 205.122881,20.0883722 205.696777,21.4321289 C206.606613,23.6157336 207.28548,24.8404935 207.733398,25.1064453 C208.125327,25.3304048 209.077141,25.4703773 210.588867,25.5263672 L210.588867,29.1796875 C208.041328,29.16569 206.354659,28.864749 205.528809,28.2768555 C205.010902,27.8989239 204.486005,27.2130584 203.954102,26.2192383 C203.814127,25.9672839 203.331222,24.9804774 202.505371,23.2587891 C202.211424,22.684893 201.966472,22.2929698 201.770508,22.0830078 C201.448566,21.789061 200.951664,21.6420898 200.279785,21.6420898 L195.156738,21.6420898 C194.48486,21.6420898 194.008953,21.8380514 193.729004,22.2299805 C193.533039,22.4819349 193.036137,23.4407469 192.238281,25.1064453 C191.468421,26.7301513 190.768558,27.7659483 190.138672,28.2138672 C189.284826,28.8157582 187.605156,29.1376951 185.099609,29.1796875 L185.099609,29.1796875 Z M195.891602,44.6118164 L195.891602,41.2524414 L203.807129,41.2524414 C205.262865,41.2524414 205.990723,40.6155663 205.990723,39.3417969 L205.990723,34.9326172 C205.990723,33.9807895 205.472824,33.5048828 204.437012,33.5048828 L192.427246,33.5048828 C191.573401,33.5048828 190.999513,33.651854 190.705566,33.9458008 C190.341632,34.3097349 190.159668,34.8556279 190.159668,35.5834961 L190.159668,46.6484375 C190.159668,48.6220802 190.992505,49.6088867 192.658203,49.6088867 L210.084961,49.6088867 L210.084961,53.1782227 L191.797363,53.1782227 C190.145662,53.1782227 188.766933,52.625331 187.661133,51.5195312 C186.695308,50.5537061 186.212402,49.3359448 186.212402,47.8662109 L186.212402,34.2607422 C186.212402,32.8469981 186.63232,31.7062218 187.472168,30.8383789 C188.214034,30.0825158 189.319817,29.7045898 190.789551,29.7045898 L205.318848,29.7045898 C206.732592,29.7045898 207.859371,30.1315061 208.699219,30.9853516 C209.371097,31.6572299 209.707031,32.5250598 209.707031,33.5888672 L209.707031,40.6855469 C209.707031,41.5393923 209.336104,42.3512331 208.594238,43.1210938 C207.628413,44.1149138 206.242685,44.6118164 204.437012,44.6118164 L195.891602,44.6118164 Z M212.772461,53.3041992 L212.772461,49.3779297 L217.517578,49.3779297 C218.245446,49.3779297 218.819334,49.1609722 219.239258,48.7270508 C219.631187,48.3211243 219.827148,47.8242217 219.827148,47.2363281 L219.827148,17.6738281 L223.774414,17.6738281 L223.774414,47.8662109 C223.774414,49.4339271 223.249517,50.7356719 222.199707,51.7714844 C221.163895,52.7932994 219.785165,53.3041992 218.063477,53.3041992 L212.772461,53.3041992 Z M212.772461,47.1103516 L212.772461,19.2485352 L216.656738,19.2485352 L216.656738,47.1103516 L212.772461,47.1103516 Z M228.099609,53.2412109 L228.099609,49.2939453 L239.962402,49.2939453 L239.962402,17.6738281 L243.909668,17.6738281 L243.909668,49.2939453 L250.901367,49.2939453 L250.901367,17.6738281 L254.848633,17.6738281 L254.848633,49.2939453 L266.774414,49.2939453 L266.774414,53.2412109 L228.099609,53.2412109 Z M228.099609,17.6738281 L232.130859,17.6738281 L233.516602,33.5888672 C233.712566,35.9684364 234.104489,37.7530865 234.692383,38.9428711 C235.140302,39.8807013 235.686195,40.5525696 236.330078,40.9584961 C236.666017,41.1684581 237.169919,41.3504224 237.841797,41.5043945 L237.841797,45.5986328 C235.490223,45.1087215 233.712571,44.2688862 232.508789,43.0791016 C231.444982,42.0152942 230.68913,40.5735768 230.241211,38.7539062 C229.961262,37.634109 229.7653,36.430345 229.65332,35.1425781 L228.099609,17.6738281 Z M257.01123,45.5356445 L257.01123,41.6303711 C258.382982,41.2384421 259.41178,40.4615944 260.097656,39.2998047 C260.727542,38.2219998 261.14746,36.5143346 261.357422,34.1767578 L262.785156,17.6738281 L266.79541,17.6738281 L265.34668,34.0717773 C265.150715,36.3113719 264.905763,37.9350536 264.611816,38.9428711 C263.911943,41.2944454 262.820157,42.9601188 261.336426,43.9399414 C260.48258,44.49984 259.040863,45.0317358 257.01123,45.5356445 L257.01123,45.5356445 Z M271.162598,51.456543 L271.162598,47.5722656 L276.831543,47.5722656 L276.831543,22.2509766 L271.162598,22.2509766 L271.162598,18.3876953 L286.426758,18.3876953 L286.426758,22.2509766 L280.71582,22.2509766 L280.71582,47.5722656 L286.426758,47.5722656 L286.426758,51.456543 L271.162598,51.456543 Z M287.791504,21.3481445 L287.791504,17.4848633 L309.79541,17.4848633 L309.79541,21.3481445 L300.76709,21.3481445 L300.76709,24.6655273 L305.449219,24.6655273 C306.639003,24.6655273 307.583818,25.0154587 308.283691,25.715332 C308.983565,26.4012079 309.333496,27.2550405 309.333496,28.2768555 L309.333496,43.7719727 L305.449219,43.7719727 L305.449219,30.2084961 C305.449219,29.5506152 305.330242,29.1097016 305.092285,28.8857422 C304.854328,28.6617827 304.434411,28.5498047 303.83252,28.5498047 L293.460449,28.5498047 C292.578609,28.5498047 292.137695,28.976721 292.137695,29.8305664 L292.137695,43.7719727 L288.253418,43.7719727 L288.253418,28.7597656 C288.253418,27.4300064 288.617347,26.4082067 289.345215,25.6943359 C290.059086,25.0084601 290.989903,24.6655273 292.137695,24.6655273 L296.882812,24.6655273 L296.882812,21.3481445 L287.791504,21.3481445 Z M287.854492,53.0102539 L287.854492,48.8320312 C290.667983,47.502272 292.655593,46.298508 293.817383,45.2207031 C295.763031,43.4010326 296.73584,41.2454552 296.73584,38.7539062 L296.73584,31.090332 L300.830078,31.090332 L300.830078,38.1450195 C300.830078,40.7625456 301.487949,42.8341395 302.803711,44.3598633 C304.175463,45.9555744 306.547997,47.4882739 309.921387,48.9580078 L309.921387,53.1152344 C305.246233,51.5195233 301.529962,49.042009 298.772461,45.6826172 C297.246737,47.5442801 295.574065,49.0419865 293.754395,50.1757812 C292.270663,51.099614 290.304049,52.0444288 287.854492,53.0102539 L287.854492,53.0102539 Z M315.149414,47.3413086 L315.149414,23.7626953 C315.149414,21.649078 315.688308,20.1023812 316.766113,19.1225586 C317.801926,18.1847284 319.187654,17.7158203 320.92334,17.7158203 L345.887695,17.7158203 C347.217455,17.7158203 348.218258,17.8627915 348.890137,18.1567383 C350.989757,19.0665736 352.039551,20.7812374 352.039551,23.3007812 L352.039551,47.4462891 C352.039551,49.0000078 351.7876,50.1547814 351.283691,50.9106445 C350.177892,52.548348 348.547211,53.3671875 346.391602,53.3671875 L321.175293,53.3671875 C319.537589,53.3671875 318.368819,53.1292342 317.668945,52.6533203 C316.773107,52.0514293 316.122235,51.3375692 315.716309,50.5117188 C315.338377,49.7278607 315.149414,48.6710678 315.149414,47.3413086 L315.149414,47.3413086 Z M348.155273,42.2392578 L319.033691,42.2392578 L319.012695,47.1313477 C319.012695,47.7752311 319.215656,48.3141254 319.621582,48.7480469 C319.999514,49.1539734 320.433429,49.3849281 320.92334,49.440918 C321.105307,49.4689129 321.462237,49.4829102 321.994141,49.4829102 L344.984863,49.4829102 C346.062668,49.4829102 346.755532,49.3779307 347.063477,49.1679688 C347.791345,48.6780574 348.155273,47.9432015 348.155273,46.9633789 L348.155273,42.2392578 Z M319.033691,38.3549805 L348.155273,38.3549805 L348.155273,31.9931641 L319.033691,31.9931641 L319.033691,38.3549805 Z M319.033691,28.0668945 L348.155273,28.0668945 L348.17627,24.0356445 C348.17627,22.4119385 347.273447,21.6000977 345.467773,21.6000977 L322.309082,21.6000977 C320.11148,21.6000977 319.012695,22.3349536 319.012695,23.8046875 L319.033691,28.0668945 Z M357.099609,42.5961914 L357.099609,38.5019531 C358.485358,38.3619785 359.619136,38.1590183 360.500977,37.8930664 C361.480799,37.5851222 362.824536,36.9762415 364.532227,36.0664062 L364.532227,25.4633789 L357.099609,25.4633789 L357.099609,21.453125 L364.532227,21.453125 L364.532227,17.8837891 L368.416504,17.8837891 L368.416504,21.453125 L374.610352,21.453125 L374.610352,25.4633789 L368.416504,25.4633789 L368.416504,34.0507812 C370.390147,33.2949181 372.36376,32.7560237 374.337402,32.434082 L374.337402,36.2763672 C372.839674,36.5143241 371.656905,36.8222637 370.789063,37.2001953 C370.285154,37.4241548 369.494309,37.8230766 368.416504,38.3969727 L368.416504,46.5224609 C368.416504,48.7900504 368.108564,50.3577431 367.492676,51.2255859 C366.778805,52.2334035 365.861985,52.9122704 364.742188,53.262207 C364.098304,53.4581716 363.195481,53.5561523 362.033691,53.5561523 L359.598145,53.5561523 L359.598145,49.6508789 L361.34082,49.6508789 C362.5586,49.6508789 363.405434,49.4059269 363.881348,48.9160156 C364.105307,48.6780587 364.252278,48.4611012 364.322266,48.2651367 C364.46224,47.8312153 364.532227,47.1243539 364.532227,46.1445312 L364.532227,40.6225586 C362.726553,41.3644243 361.494795,41.8263337 360.836914,42.0083008 C360.095048,42.2042653 358.849293,42.4002269 357.099609,42.5961914 L357.099609,42.5961914 Z M375.345215,50.4277344 L375.345215,45.6196289 L384.520508,39.362793 C383.764645,36.4093277 383.106774,32.7420466 382.546875,28.3608398 L375.870117,28.3608398 L375.870117,24.4975586 L381.958984,24.4975586 L380.951172,17.6318359 L384.877441,17.6318359 L385.90625,24.4975586 L395.963379,24.4975586 L395.963379,28.3608398 L386.473145,28.3608398 C386.977053,31.9581886 387.466957,34.8416233 387.942871,37.0112305 C389.60857,35.8914332 390.665362,34.897628 391.113281,34.0297852 C391.323243,33.6238586 391.526203,33.0289753 391.722168,32.2451172 L395.69043,32.2451172 C395.69043,32.9589879 395.53646,33.7008425 395.228516,34.4707031 C394.668617,35.8704497 393.884771,37.0952096 392.876953,38.1450195 C392.107093,38.9428751 390.854338,39.8946885 389.118652,41.0004883 C390.252447,43.785984 391.421218,45.8295833 392.625,47.1313477 C393.50684,48.0971728 394.661614,48.8810191 396.089355,49.4829102 L396.089355,53.3671875 C394.1857,52.9332661 392.722987,52.3453813 391.701172,51.6035156 C390.231438,50.5257108 388.929693,49.0769948 387.795898,47.2573242 C387.208005,46.319494 386.543135,44.9827561 385.80127,43.2470703 L375.345215,50.4277344 Z M388.194824,22.1879883 L388.194824,18.3037109 L395.984375,18.3037109 L395.984375,22.1879883 L388.194824,22.1879883 Z M400.057617,53.2412109 L400.057617,49.2939453 L410.47168,49.2939453 L410.47168,43.0371094 L400.58252,43.0371094 L400.58252,39.152832 L410.47168,39.152832 L410.47168,34.449707 L407.196289,34.449707 C404.662748,34.449707 402.941085,34.1347688 402.03125,33.5048828 C400.995438,32.7770146 400.477539,31.7482163 400.477539,30.418457 C400.477539,29.7745736 400.77848,28.7037835 401.380371,27.2060547 L403.626953,21.6000977 L400.057617,21.6000977 L400.057617,17.7158203 L424.833008,17.7158203 L424.833008,21.6000977 L408.204102,21.6000977 L405.68457,27.5209961 C405.320636,28.388839 405.138672,28.990721 405.138672,29.3266602 C405.138672,30.0685258 405.775547,30.4394531 407.049316,30.4394531 L418.53418,30.4394531 C419.052086,30.4394531 419.527993,30.3414723 419.961914,30.1455078 C420.717777,29.8095686 421.095703,29.2776729 421.095703,28.5498047 C421.095703,27.9199187 420.794762,26.6111753 420.192871,24.6235352 L424.182129,24.6235352 C424.798017,27.0870891 425.105957,28.7597612 425.105957,29.6416016 C425.105957,31.0273507 424.441087,32.2101188 423.111328,33.1899414 C421.977533,34.0297894 420.451833,34.449707 418.53418,34.449707 L414.481934,34.449707 L414.481934,39.152832 L424.623047,39.152832 L424.623047,43.0371094 L414.481934,43.0371094 L414.481934,49.2939453 L425.147949,49.2939453 L425.147949,53.2412109 L400.057617,53.2412109 Z M427.66748,53.3041992 L427.66748,49.3569336 L432.706543,49.3569336 C433.434411,49.3569336 433.994301,49.048994 434.38623,48.4331055 C434.652182,48.0411764 434.785156,47.2853246 434.785156,46.1655273 L434.785156,17.652832 L438.669434,17.652832 L438.669434,47.1943359 C438.669434,48.5380927 438.508465,49.566891 438.186523,50.2807617 C437.65462,51.4565488 436.779791,52.3103815 435.562012,52.8422852 C434.848141,53.1642269 434.120284,53.3181967 433.378418,53.3041992 L427.66748,53.3041992 Z M427.66748,47.1103516 L427.66748,19.2275391 L431.551758,19.2275391 L431.551758,47.1103516 L427.66748,47.1103516 Z M443.120605,29.956543 L443.120605,26.1142578 C444.632332,26.0862629 445.759111,25.9042986 446.500977,25.5683594 C447.284835,25.2044253 448.089677,24.1826256 448.915527,22.5029297 C449.629398,21.0751882 450.18229,20.1443707 450.574219,19.7104492 C451.722011,18.4366798 453.422678,17.7998047 455.67627,17.7998047 L468.756836,17.7998047 C470.268562,17.7998047 471.507319,17.9677718 472.473145,18.3037109 C473.354985,18.6256527 474.096839,19.1855429 474.69873,19.9833984 C475.048667,20.4593123 475.454588,21.1591751 475.916504,22.0830078 C476.60238,23.4267645 477.092284,24.2735985 477.38623,24.6235352 C478.016116,25.3933958 478.960931,25.8553052 480.220703,26.0092773 C480.62663,26.0512697 481.193518,26.0862629 481.921387,26.1142578 L481.921387,29.956543 C479.41584,29.8725582 477.617193,29.5716172 476.525391,29.0537109 C475.601558,28.6197895 474.810713,27.8989308 474.152832,26.8911133 C473.858885,26.4431944 473.487958,25.7573288 473.040039,24.8334961 C472.508135,23.7416938 472.158204,23.0768241 471.990234,22.8388672 C471.472328,22.110999 470.317555,21.7470703 468.525879,21.7470703 L455.802246,21.7470703 C455.17236,21.7470703 454.584475,21.8590484 454.038574,22.0830078 C453.450681,22.3209647 452.925784,22.9228467 452.463867,23.8886719 C451.652014,25.6243576 451.015139,26.7861299 450.553223,27.3740234 C449.615392,28.591803 448.257659,29.3546534 446.47998,29.6625977 C445.48616,29.8445647 444.36638,29.9425455 443.120605,29.956543 L443.120605,29.956543 Z M444.17041,34.7856445 L444.17041,30.9013672 L481.186523,30.9013672 L481.186523,34.7856445 L444.17041,34.7856445 Z M447.928711,37.0322266 L476.861328,37.0322266 C479.758804,37.0322266 481.20752,38.3479686 481.20752,40.9794922 L481.20752,49.230957 C481.20752,50.5467188 480.94857,51.5125295 480.430664,52.128418 C479.702796,53.0102583 478.618009,53.4511719 477.17627,53.4511719 L448.285645,53.4511719 C446.703931,53.4511719 445.598148,53.1082391 444.968262,52.4223633 C444.282386,51.6944951 443.939453,50.8196666 443.939453,49.7978516 L443.939453,40.9165039 C443.939453,39.7827092 444.247393,38.8728875 444.863281,38.1870117 C445.563155,37.4171511 446.584954,37.0322266 447.928711,37.0322266 L447.928711,37.0322266 Z M477.323242,48.2021484 L477.323242,42.1762695 C477.323242,41.378414 476.917322,40.9794922 476.105469,40.9794922 L449.146484,40.9794922 C448.264644,40.9794922 447.82373,41.378414 447.82373,42.1762695 L447.82373,48.2021484 C447.82373,49.0839888 448.292639,49.5249023 449.230469,49.5249023 L475.790527,49.5249023 C476.812342,49.5249023 477.323242,49.0839888 477.323242,48.2021484 L477.323242,48.2021484 Z M486.120605,53.4301758 L486.120605,49.5668945 C488.010263,49.2869452 488.955078,48.3211346 488.955078,46.6694336 L488.955078,33.8198242 L488.99707,32.6230469 C488.99707,31.4612572 488.48617,30.8873697 487.464355,30.9013672 L486.120605,30.9013672 L486.120605,27.0170898 L489.039062,27.0380859 C490.21485,27.0380859 491.173662,27.4160118 491.915527,28.171875 C492.531416,28.8157584 492.839355,29.6905869 492.839355,30.7963867 L492.839355,44.9057617 C492.853353,46.025559 492.86735,46.7114245 492.881348,46.9633789 C492.937338,47.7612345 493.308265,48.4331027 493.994141,48.9790039 C494.484052,49.3709329 494.973956,49.5668945 495.463867,49.5668945 L496.786621,49.5458984 L524.858398,49.5458984 L524.858398,53.4301758 L496.828613,53.4301758 C495.162915,53.4301758 493.994144,53.2902032 493.322266,53.0102539 C492.706377,52.7443021 491.894536,52.2054077 490.886719,51.3935547 C489.766921,52.3873748 488.801111,52.9892568 487.989258,53.1992188 C487.555336,53.3251959 486.932458,53.4021808 486.120605,53.4301758 L486.120605,53.4301758 Z M486.183594,21.8100586 L486.183594,17.7998047 L493.490234,17.7998047 L493.490234,21.8100586 L486.183594,21.8100586 Z M495.463867,29.4526367 L495.463867,25.5683594 L508.1875,25.5683594 L508.1875,22.6708984 L496.324707,22.6708984 L496.324707,18.7866211 L518.07666,18.7866211 L518.979492,18.8076172 C519.665368,18.8076172 520.022298,18.471683 520.050293,17.7998047 L523.93457,17.7998047 C523.864583,19.1715563 523.437667,20.2773396 522.653809,21.1171875 C521.687983,22.153 520.561204,22.6708984 519.273438,22.6708984 L512.071777,22.6708984 L512.071777,25.5683594 L524.79541,25.5683594 L524.79541,29.4526367 L512.071777,29.4526367 L512.050781,33.0219727 L520.323242,33.0219727 C521.806974,33.0219727 522.884762,33.3859013 523.556641,34.1137695 C524.158532,34.757653 524.459473,35.4995075 524.459473,36.3393555 L524.459473,43.2890625 C524.459473,44.5208395 524.109541,45.4866501 523.409668,46.1865234 C522.751787,46.8444043 521.806972,47.1733398 520.575195,47.1733398 L499.957031,47.1733398 C498.767247,47.1733398 497.927411,47.0053728 497.4375,46.6694336 C496.345698,45.899573 495.799805,45.0177459 495.799805,44.0239258 L495.799805,36.6333008 C495.799805,35.5834908 496.142737,34.7086624 496.828613,34.0087891 C497.486494,33.3509082 498.214351,33.0219727 499.012207,33.0219727 L508.1875,33.0219727 L508.1875,29.4526367 L495.463867,29.4526367 Z M501.636719,43.2890625 L518.601562,43.2890625 C519.399418,43.2890625 519.903319,43.2190762 520.113281,43.0791016 C520.463218,42.8551421 520.638184,42.4352244 520.638184,41.8193359 L520.638184,38.4179688 C520.638184,37.7740853 520.463218,37.3401704 520.113281,37.1162109 C519.875324,36.9762363 519.476403,36.90625 518.916504,36.90625 L501.594727,36.90625 C500.782874,36.90625 500.278972,36.9692377 500.083008,37.0952148 C499.733071,37.3051768 499.558105,37.6201151 499.558105,38.0400391 L499.558105,42.0292969 C499.558105,42.5052107 499.733071,42.8551421 500.083008,43.0791016 C500.306967,43.2190762 500.824866,43.2890625 501.636719,43.2890625 L501.636719,43.2890625 Z M548.940918,27.5419922 L548.940918,23.4477539 C550.270677,22.789873 551.257484,21.9010473 551.901367,20.78125 C552.279299,20.0953742 552.636229,19.0315827 552.972168,17.5898438 L557.024414,17.5898438 C556.786457,18.4436892 556.548504,19.25553 556.310547,20.0253906 L562.378418,20.0253906 C564.072111,20.0113932 565.408849,20.5152944 566.388672,21.5371094 C567.396489,22.5869193 567.900391,23.8886641 567.900391,25.4423828 L567.900391,47.6772461 C567.900391,49.4969167 567.396489,50.9246367 566.388672,51.9604492 C565.408849,52.9822642 564.191088,53.4931641 562.735352,53.4931641 L552.363281,53.4931641 L552.363281,49.6088867 L561.706543,49.6088867 C563.260262,49.6088867 564.037109,48.6780692 564.037109,46.8164062 L564.037109,26.8911133 C564.037109,25.8832957 563.88314,25.1764343 563.575195,24.7705078 C563.155271,24.2106092 562.532393,23.9306641 561.706543,23.9306641 L554.441895,23.909668 C552.902173,25.7573335 551.068533,26.9680961 548.940918,27.5419922 L548.940918,27.5419922 Z M550.389648,38.3969727 L550.389648,34.449707 L561.580566,34.449707 L561.580566,38.3969727 L550.389648,38.3969727 Z M532.458984,20.6552734 L532.458984,17.8208008 L536.30127,17.8208008 L536.30127,20.6552734 L543.145996,20.6552734 C544.433763,20.6552734 545.441565,21.0052048 546.169434,21.7050781 C546.883304,22.4049514 547.240234,23.3987566 547.240234,24.6865234 L547.240234,49.230957 C547.240234,50.7426833 546.911299,51.8274707 546.253418,52.4853516 C545.553545,53.1712274 544.755701,53.5141602 543.859863,53.5141602 L533.067871,53.5141602 C531.794102,53.5141602 530.828291,53.1712274 530.17041,52.4853516 C529.652504,51.9534479 529.344564,51.3655631 529.246582,50.7216797 C529.176595,50.3297506 529.141602,49.8048535 529.141602,49.1469727 L529.141602,25.1274414 C529.141602,23.3777582 529.540523,22.1669955 530.338379,21.4951172 C530.800295,21.1031881 531.507157,20.823243 532.458984,20.6552734 L532.458984,20.6552734 Z M543.355957,38.5649414 L533.025879,38.5649414 L533.025879,48.2651367 C533.025879,49.1889695 533.396806,49.6508789 534.138672,49.6508789 L542.138184,49.6508789 C542.950037,49.6508789 543.355957,49.2519571 543.355957,48.4541016 L543.355957,38.5649414 Z M533.025879,34.6806641 L543.355957,34.6806641 L543.355957,25.8413086 C543.355957,24.9874632 542.894048,24.5605469 541.970215,24.5605469 L534.453613,24.5395508 C533.501786,24.5395508 533.025879,25.0714465 533.025879,26.1352539 L533.025879,34.6806641 Z M577.747559,35.2055664 L577.747559,25.3583984 L572.288574,25.3583984 L572.288574,21.3481445 L577.747559,21.3481445 L577.747559,17.652832 L581.631836,17.652832 L581.631836,21.3481445 L585.915039,21.3481445 L585.915039,25.3583984 L581.631836,25.3583984 L581.631836,32.9799805 C582.723638,32.3220996 584.151358,31.7552107 585.915039,31.2792969 L585.915039,35.3735352 C584.445305,35.8214541 583.017585,36.4653278 581.631836,37.3051758 L581.631836,47.2783203 C581.631836,48.9160238 581.330895,50.1617796 580.729004,51.015625 C580.043128,51.9954476 579.189295,52.6533186 578.16748,52.9892578 C577.425615,53.2272147 576.396816,53.3461914 575.081055,53.3461914 L573.275391,53.3461914 L573.275391,49.5249023 L575.081055,49.5249023 C575.948898,49.5249023 576.620766,49.286949 577.09668,48.8110352 C577.530601,48.3631163 577.747559,47.5372782 577.747559,46.3334961 L577.747559,39.6567383 C576.207837,40.398604 574.318208,40.8815093 572.078613,41.1054688 L572.078613,37.0322266 C573.926279,36.9202468 575.815908,36.3113662 577.747559,35.2055664 L577.747559,35.2055664 Z M587.552734,53.3461914 L587.552734,49.5249023 C589.218433,49.1049784 590.534175,48.7060566 591.5,48.328125 C592.451828,47.9641909 593.984527,47.2363336 596.098145,46.1445312 C594.446444,44.8007745 593.179692,43.6739954 592.297852,42.7641602 C591.304031,41.7423452 590.275233,40.4615962 589.211426,38.921875 L593.851562,38.921875 C595.363289,40.6435633 597.238921,42.323234 599.478516,43.9609375 C601.340179,42.6591732 602.690914,41.5953817 603.530762,40.7695312 C604.524582,39.7897086 605.462398,38.5159584 606.344238,36.9482422 L588.014648,36.9482422 L588.014648,33.0639648 L606.197266,33.0639648 C607.764982,33.0639648 608.919755,33.4348921 609.661621,34.1767578 C610.375492,34.8766311 610.732422,35.7304637 610.732422,36.7382812 C610.732422,39.1178504 608.205917,42.2952275 603.152832,46.2705078 C604.734546,47.1243532 606.043289,47.7402325 607.079102,48.1181641 C607.932947,48.4261083 609.178703,48.7970356 610.816406,49.230957 L610.816406,53.3461914 C606.911113,52.2263941 603.215838,50.6517029 599.730469,48.6220703 C596.972968,50.1058017 594.817391,51.1415986 593.263672,51.7294922 C591.821933,52.2753934 589.918306,52.8142877 587.552734,53.3461914 L587.552734,53.3461914 Z M588.140625,31.7412109 L588.140625,28.171875 C588.826501,28.0319003 589.344399,27.7589539 589.694336,27.3530273 C590.072268,26.9051084 590.26123,26.198247 590.26123,25.2324219 L590.26123,20.0883789 C590.26123,19.5004853 590.492185,18.9825869 590.954102,18.534668 C591.555993,17.9607719 592.311844,17.6738281 593.22168,17.6738281 L605.567383,17.6738281 C606.827155,17.6738281 607.757972,17.9467746 608.359863,18.4926758 C608.849775,18.9405947 609.094727,19.5074835 609.094727,20.1933594 L609.094727,25.2324219 C609.094727,26.2822318 609.297687,27.0240864 609.703613,27.4580078 C609.99756,27.7659521 610.480465,28.0039054 611.152344,28.171875 L611.152344,31.7412109 C609.766595,31.5732413 608.723799,31.279299 608.023926,30.859375 C606.386222,29.8655549 605.567383,28.1928829 605.567383,25.8413086 L605.567383,23.2587891 C605.567383,22.4329386 605.469402,21.8730483 605.273438,21.5791016 C605.09147,21.3411446 604.622562,21.222168 603.866699,21.222168 L595.405273,21.222168 C594.7054,21.222168 594.243491,21.334146 594.019531,21.5581055 C593.851562,21.7260751 593.767578,22.1669886 593.767578,22.8808594 L593.767578,24.6445312 C593.767578,26.4222094 593.585614,27.7589473 593.22168,28.6547852 C592.773761,29.760585 592.003912,30.5654272 590.912109,31.0693359 C590.310218,31.3632827 589.386399,31.5872388 588.140625,31.7412109 L588.140625,31.7412109 Z M615.141602,22.2089844 L615.141602,18.7866211 L623.519043,18.7866211 L623.519043,22.2089844 L615.141602,22.2089844 Z M615.393555,36.1083984 L615.393555,32.6860352 L623.708008,32.6860352 L623.708008,36.1083984 L615.393555,36.1083984 Z M624.841797,26.7651367 L624.841797,23.1118164 C625.989589,22.6638975 626.822426,22.1180045 627.340332,21.4741211 C627.956221,20.690263 628.41813,19.3955168 628.726074,17.5898438 L632.799316,17.5898438 L632.547363,18.8496094 L647.895508,18.8496094 C649.967133,18.8496094 651.457841,19.2975216 652.367676,20.1933594 C653.179529,20.9912149 653.585449,21.9920187 653.585449,23.1958008 C653.585449,24.2036183 653.060552,25.4073823 652.010742,26.8071289 L647.139648,26.8071289 C647.699547,26.0932581 648.126463,25.5613624 648.42041,25.2114258 C649.260258,24.2316032 649.680176,23.5807308 649.680176,23.2587891 C649.680176,22.7828752 649.176275,22.5449219 648.168457,22.5449219 L631.161621,22.5449219 C630.321773,23.8466862 629.439946,24.7984996 628.516113,25.4003906 C627.606278,26.0022817 626.381518,26.4571925 624.841797,26.7651367 L624.841797,26.7651367 Z M625.681641,36.234375 L625.681641,32.4760742 C627.571299,32.1961249 628.985021,31.8881853 629.922852,31.5522461 C632.386406,30.6844032 634.255039,29.1307078 635.528809,26.8911133 C635.934735,26.2052375 636.480628,25.0574625 637.166504,23.4477539 L641.827637,23.4477539 L640.693848,26.0932617 L643.003418,26.0932617 C643.829268,27.5769931 644.662105,28.6687791 645.501953,29.3686523 C647.433603,30.9783609 650.20506,32.0001606 653.816406,32.434082 L653.816406,36.234375 C650.778956,36.0524079 648.238454,35.5135136 646.194824,34.6176758 C644.319164,33.8058228 642.765468,32.7210354 641.533691,31.3632812 C641.029783,30.8033826 640.336918,29.893561 639.455078,28.6337891 C638.419266,30.2574951 637.502445,31.4542605 636.70459,32.2241211 C635.164869,33.7078525 633.198254,34.7856412 630.804688,35.4575195 C629.6289,35.7934587 627.921235,36.0524079 625.681641,36.234375 L625.681641,36.234375 Z M653.963379,53.3461914 C648.994279,53.2342117 645.194024,52.7513064 642.5625,51.8974609 C640.378895,51.1975876 638.482267,50.1967839 636.872559,48.8950195 C636.284665,48.4191057 635.549809,47.6912484 634.667969,46.7114258 C633.28222,48.2091546 631.95248,49.3429323 630.678711,50.112793 C628.439116,51.4705472 625.688656,52.3873674 622.427246,52.8632812 C620.80354,53.1012382 618.35402,53.2692052 615.078613,53.3671875 L615.078613,50.0917969 C618.29803,49.9098298 620.565586,49.6788751 621.881348,49.3989258 C625.744648,48.6010702 628.579093,47.3763103 630.384766,45.7246094 C631.700527,44.5208273 632.533364,42.9601333 632.883301,41.0424805 L636.515625,41.0424805 C636.991539,44.1079255 639.2311,46.487459 643.234375,48.1811523 C646.13185,49.4129293 649.708149,50.0847976 653.963379,50.1967773 L653.963379,53.3461914 Z M652.241699,47.0893555 L648.147461,47.0683594 L648.168457,41.7773438 C648.168457,41.3714172 648.04948,41.0634776 647.811523,40.8535156 C647.531574,40.6155587 647.237632,40.496582 646.929688,40.496582 L622.385254,40.496582 C621.405431,40.496582 620.915527,40.986486 620.915527,41.9663086 L620.915527,47.0893555 L616.800293,47.0683594 L616.821289,40.3496094 C616.821289,39.3417918 617.143226,38.5439483 617.787109,37.9560547 C618.542973,37.2701789 619.550775,36.9272461 620.810547,36.9272461 L647.958496,36.9482422 C650.813979,36.9482422 652.241699,38.0540254 652.241699,40.265625 L652.241699,47.0893555 Z M658.246582,53.3671875 L658.246582,49.4619141 C659.520351,49.4479166 660.507158,49.2659523 661.207031,48.9160156 C662.312831,48.3841119 663.180661,47.4672917 663.810547,46.1655273 L677.625977,17.7368164 L681.930176,17.7368164 L678.108887,25.6103516 L690.685547,45.3676758 C692.407235,48.0691867 694.394846,49.4199219 696.648438,49.4199219 C696.69043,49.4199219 696.781412,49.4129232 696.921387,49.3989258 L696.921387,53.262207 C694.863759,53.1362298 693.142097,52.6743204 691.756348,51.8764648 C690.230624,51.008622 688.963872,49.7768634 687.956055,48.1811523 L676.219238,29.515625 L667.043945,48.2651367 C666.02213,50.3647566 664.39145,51.8414671 662.151855,52.6953125 C660.948073,53.1432314 659.646329,53.3671875 658.246582,53.3671875 L658.246582,53.3671875 Z" id="为优质的创业项目找到合适的投资人-copy-5" sketch:type="MSShapeGroup"></path>
        </g>
    </g>
</svg>